<?xml version="1.0" encoding="UTF-8" standalone="no"?>
<!DOCTYPE svg PUBLIC "-//W3C//DTD SVG 1.1//EN" "http://www.w3.org/Graphics/SVG/1.1/DTD/svg11.dtd">
<svg width="100%" height="100%" viewBox="0 0 1280 720" version="1.1" xmlns="http://www.w3.org/2000/svg" xmlns:xlink="http://www.w3.org/1999/xlink" xml:space="preserve" xmlns:serif="http://www.serif.com/" style="fill-rule:evenodd;clip-rule:evenodd;stroke-linejoin:round;stroke-miterlimit:1.41421;">
    <path d="M1285.53,731.456L-13.061,731.456L-13.061,-7.408L1285.53,-7.408L1285.53,731.456ZM1090,116.002L1054.68,116.002L1054.68,603.998L1090,603.998L1090,116.002ZM765.954,117.072L558.48,117.072L558.48,151.184L722.813,151.184L516.137,603.998L557.94,603.998L765.954,140.148L765.954,117.072ZM805.67,570.727L941.448,419.528C977.12,379.779 1002.03,346.618 1016.19,320.046C1029.81,294.493 1036.88,270.869 1037.4,249.175L1037.4,243.173C1036.69,205.036 1024.16,174.771 999.805,152.376C974.723,129.317 939.887,117.788 895.297,117.788C866.09,117.788 840.061,124.102 817.208,136.729C794.356,149.357 776.742,166.76 764.369,188.941C751.995,211.121 745.808,235.717 745.808,262.729L785.605,262.729C785.605,229.787 795.694,202.995 815.87,182.353C836.047,161.709 862.523,151.388 895.297,151.388C926.956,151.388 951.815,160.227 969.874,177.905C987.933,195.584 996.962,219.576 996.962,249.882C996.962,269.207 991.612,289.081 980.91,309.505C970.208,329.928 951.035,355.842 923.389,387.246L756.51,573.692L756.51,603.998L1037.4,603.998L1037.4,570.727L805.67,570.727ZM541.148,117.133L190,117.133L190,151.159L346.125,151.159L346.125,152.029L346.135,152.029L346.135,601.015L346.137,601.015L346.137,603.998L384.696,603.998L384.696,601.015L384.699,601.015L384.699,152.029L384.712,152.029L384.712,151.159L541.148,151.159L541.148,117.133Z" style="fill:rgb(240,242,244);"/>
</svg>
