<?xml version="1.0" encoding="UTF-8" standalone="no"?>
<!DOCTYPE svg PUBLIC "-//W3C//DTD SVG 1.1//EN" "http://www.w3.org/Graphics/SVG/1.1/DTD/svg11.dtd">
<svg width="100%" height="100%" viewBox="0 0 1280 720" version="1.1" xmlns="http://www.w3.org/2000/svg" xmlns:xlink="http://www.w3.org/1999/xlink" xml:space="preserve" xmlns:serif="http://www.serif.com/" style="fill-rule:evenodd;clip-rule:evenodd;stroke-linejoin:round;stroke-miterlimit:2;">
    <path d="M1280,0L1280,720L0,720L0,0L1280,0ZM459.118,272.941L547.231,184.706L190.114,184.706L190,272.873L292.177,272.939C294.223,272.942 295.88,274.601 295.882,276.646L295.882,555.294L384.118,555.294L384.118,272.941L459.118,272.941ZM948.824,414.118L948.824,184.706L622.353,184.706L437.059,370L437.059,551.589C437.059,553.635 438.718,555.294 440.764,555.294L525.294,555.294L523.455,414.417L525.294,414.118L666.471,272.941L860.588,272.941L860.588,325.882L719.412,325.882L719.412,555.294L1090,555.294L1090,184.706L1001.76,184.706L1001.76,467.059L807.647,467.059L807.647,414.118L948.824,414.118Z" style="fill:rgb(240,242,244);"/>
</svg>
