<?xml version="1.0" encoding="UTF-8" standalone="no"?>
<!DOCTYPE svg PUBLIC "-//W3C//DTD SVG 1.1//EN" "http://www.w3.org/Graphics/SVG/1.1/DTD/svg11.dtd">
<svg width="100%" height="100%" viewBox="0 0 50 50" version="1.1" xmlns="http://www.w3.org/2000/svg" xmlns:xlink="http://www.w3.org/1999/xlink" xml:space="preserve" xmlns:serif="http://www.serif.com/" style="fill-rule:evenodd;clip-rule:evenodd;stroke-linejoin:round;stroke-miterlimit:1.41421;">
    <rect x="-0.627" y="-1.058" width="51.495" height="51.678" style="fill:rgb(240,242,245);"/>
    <g transform="matrix(0.462763,0,0,0.462763,10,10)">
        <path d="M57.414,17L56.707,17.707C55.383,19.031 54.42,19.414 52.414,19.414C48.358,19.414 45.414,16.47 45.414,12.414C45.414,10.408 45.797,9.445 47.121,8.121L47.828,7.414L40.414,0L0,40.414L7.414,47.828L8.121,47.121C9.445,45.797 10.408,45.414 12.414,45.414C16.47,45.414 19.414,48.358 19.414,52.414C19.414,54.42 19.031,55.383 17.707,56.707L17,57.414L24.414,64.828L64.828,24.414L57.414,17ZM19.8,57.385C20.992,55.964 21.414,54.595 21.414,52.414C21.414,47.283 17.545,43.414 12.414,43.414C10.233,43.414 8.864,43.836 7.442,45.028L2.828,40.414L26.414,16.828L29.707,20.121L31.121,18.707L27.828,15.414L40.414,2.828L45.028,7.443C43.836,8.864 43.414,10.233 43.414,12.414C43.414,17.545 47.283,21.414 52.414,21.414C54.595,21.414 55.964,20.992 57.386,19.8L62,24.414L49.414,37L46.121,33.707L44.707,35.121L48,38.414L24.414,62L19.8,57.385Z" style="fill:rgb(220,225,232);fill-rule:nonzero;"/>
        <path d="M35.707,26.122L31.707,22.122L33.121,20.708L37.121,24.708L35.707,26.122Z" style="fill:rgb(220,225,232);fill-rule:nonzero;"/>
        <path d="M42.707,33.122L38.707,29.122L40.121,27.708L44.121,31.708L42.707,33.122Z" style="fill:rgb(220,225,232);fill-rule:nonzero;"/>
    </g>
</svg>
