<?xml version="1.0" encoding="UTF-8" standalone="no"?>
<!DOCTYPE svg PUBLIC "-//W3C//DTD SVG 1.1//EN" "http://www.w3.org/Graphics/SVG/1.1/DTD/svg11.dtd">
<svg width="100%" height="100%" viewBox="0 0 300 300" version="1.1" xmlns="http://www.w3.org/2000/svg" xmlns:xlink="http://www.w3.org/1999/xlink" xml:space="preserve" xmlns:serif="http://www.serif.com/" style="fill-rule:evenodd;clip-rule:evenodd;stroke-linejoin:round;stroke-miterlimit:2;">
    <g transform="matrix(0.64331,0,0,0.64331,-7.3311,90.8362)">
        <g transform="matrix(1.88015,0,0,1.88015,-37.4879,-190.133)">
            <path d="M142.997,181.411C142.669,213.417 116.583,239.3 84.5,239.3C52.213,239.3 26,213.087 26,180.8C26,148.513 52.213,122.3 84.5,122.3C85.532,122.3 86.557,122.327 87.575,122.38C89.069,153.107 112.796,178.037 142.997,181.411Z" style="fill:rgb(32,32,32);"/>
        </g>
        <g transform="matrix(1.88015,0,0,1.88015,-37.4879,-219.716)">
            <path d="M88.373,237.473L80.605,237.473L80.605,228.24C70.443,227.199 64.157,221.289 61.731,210.527L73.743,207.396C74.856,214.162 78.539,217.542 84.793,217.542C87.716,217.542 89.878,216.821 91.256,215.372C92.633,213.922 93.322,212.176 93.322,210.126C93.322,208.004 92.633,206.395 91.256,205.306C89.878,204.209 86.811,202.823 82.063,201.141C77.795,199.66 74.455,198.203 72.053,196.746C69.651,195.304 67.697,193.278 66.199,190.675C64.702,188.065 63.949,185.022 63.949,181.562C63.949,177.022 65.294,172.93 67.969,169.294C70.644,165.667 74.856,163.449 80.605,162.64L80.605,155.473L88.373,155.473L88.373,162.64C90.755,162.926 92.906,163.503 94.827,164.371C97.426,169.239 100.651,173.724 104.394,177.717L94.531,181.763C92.441,175.741 89.222,172.73 84.85,172.73C82.655,172.73 80.894,173.403 79.573,174.748C78.243,176.093 77.579,177.727 77.579,179.641C77.579,181.595 78.219,183.092 79.501,184.141C80.774,185.182 83.521,186.472 87.717,188.017C92.329,189.699 95.949,191.292 98.567,192.79C101.193,194.287 103.284,196.361 104.853,198.996C106.415,201.638 107.199,204.721 107.199,208.253C107.199,213.674 105.582,218.19 102.354,221.802C99.127,225.421 94.467,227.552 88.373,228.192L88.373,237.473Z" style="fill:rgb(64,64,64);fill-rule:nonzero;"/>
        </g>
        <g transform="matrix(1.88015,0,0,1.88015,-37.4879,-219.716)">
            <path d="M143.028,197.114C142.706,229.135 116.611,255.031 84.515,255.031C52.22,255.031 26,228.811 26,196.515C26,164.22 52.22,138 84.515,138C85.542,138 86.562,138.026 87.575,138.079C87.672,140.07 87.862,142.037 88.141,143.975C86.943,143.893 85.734,143.852 84.515,143.852C55.449,143.852 31.852,167.449 31.852,196.515C31.852,225.581 55.449,249.179 84.515,249.179C113.581,249.179 137.179,225.581 137.179,196.515L137.178,196.181C139.097,196.582 141.048,196.895 143.028,197.114Z" style="fill:rgb(64,64,64);"/>
        </g>
    </g>
    <g transform="matrix(0.661159,0,-6.71417e-17,0.661159,63.0092,88.5519)">
        <g transform="matrix(1.82939,0,1.85777e-16,1.82939,-142.865,-181.545)">
            <path d="M212.425,122.38C213.443,122.327 214.468,122.3 215.5,122.3C247.787,122.3 274,148.513 274,180.8C274,213.087 247.787,239.3 215.5,239.3C183.417,239.3 157.331,213.417 157.003,181.411C187.204,178.037 210.931,153.107 212.425,122.38Z" style="fill:rgb(32,32,32);"/>
        </g>
        <g transform="matrix(5.00439,0,8.88178e-16,5.00439,171.359,69.1069)">
            <g transform="matrix(0.365556,0,-2.77561e-17,0.365556,-62.7896,-55.8382)">
                <path d="M203.168,167.85L215.534,155.485L256.533,196.485L215.534,237.484L174.534,196.485L182.85,188.169C191.093,183.062 198.062,176.093 203.168,167.85ZM188.772,193.807L207.505,193.807L215.533,184.886L224.454,193.807L243.186,193.807L215.533,163.925L188.772,193.807Z" style="fill:rgb(64,64,64);fill-rule:nonzero;"/>
            </g>
            <g transform="matrix(0.365556,0,-2.77561e-17,0.365556,-62.7896,-55.8382)">
                <path d="M203.188,167.819L215.533,155.484L256.567,196.483L215.533,209.863L174.5,196.483L182.774,188.216C191.06,183.099 198.064,176.101 203.188,167.819ZM188.772,193.807L207.505,193.807L215.533,184.886L224.454,193.807L243.186,193.807L215.533,163.925L188.772,193.807Z" style="fill:rgb(80,80,80);fill-rule:nonzero;"/>
            </g>
            <g transform="matrix(0.365556,0,-2.77561e-17,0.365556,-62.7896,-55.8382)">
                <path d="M215.533,163.925L215.533,155.484L256.532,196.483L215.533,237.481L215.533,184.886L224.454,193.807L243.186,193.807L215.533,163.925Z" style="fill-opacity:0.4;"/>
            </g>
        </g>
        <g transform="matrix(1.82939,0,1.85777e-16,1.82939,-142.865,-210.329)">
            <path d="M212.425,138.082C213.454,138.027 214.49,138 215.533,138C247.82,138 274.033,164.213 274.033,196.5C274.033,228.787 247.82,255 215.533,255C183.449,255 157.362,229.115 157.036,197.107C159.015,196.885 160.965,196.571 162.884,196.168L162.883,196.5C162.883,225.558 186.475,249.15 215.533,249.15C244.591,249.15 268.183,225.558 268.183,196.5C268.183,167.442 244.591,143.85 215.533,143.85C214.298,143.85 213.072,143.893 211.859,143.977C212.138,142.039 212.328,140.072 212.425,138.082Z" style="fill:rgb(64,64,64);"/>
        </g>
    </g>
    <path d="M158.951,195.403L158.956,195.352C158.515,193.594 158.462,188.009 158.462,188.009C153.439,188.789 146.079,188.418 141.975,188.096C141.702,188.056 141.583,188.061 141.566,188.062L141.564,188.063L141.517,188.057C137.671,187.625 138.498,187.807 141.423,188.051L141.564,188.063C141.73,189.476 141.323,193.557 141.034,195.549C100.409,191.417 68.462,157.758 67.019,116.399L231.916,116.399C230.485,157.42 199.113,190.83 158.963,195.406L158.951,195.403ZM158.951,195.403L158.95,195.411L158.895,195.411L158.934,195.4L158.951,195.403Z" style="fill-opacity:0.27;"/>
    <g transform="matrix(0.757065,-3.95071e-17,3.95071e-17,0.757065,-137.705,-0.785139)">
        <g transform="matrix(4.13664,2.15869e-16,-2.15649e-16,4.13243,167.305,-66.2222)">
            <ellipse cx="51.417" cy="52.338" rx="24.168" ry="24.192" style="fill:rgb(32,32,32);"/>
        </g>
        <g transform="matrix(0.336128,2.77821e-17,8.33464e-17,0.336128,337.105,80)">
            <g>
                <g transform="matrix(1,0,0,1,-122,-41.5467)">
                    <path d="M249.962,41.548L377.924,253.867L249.962,329.504L249.962,329.506L122,253.867L249.961,41.55L249.962,41.547L249.962,41.547L249.962,41.547L249.962,41.548Z" style="fill:rgb(80,80,80);fill-rule:nonzero;"/>
                </g>
                <g transform="matrix(1,0,0,1,-122,-41.5467)">
                    <path d="M249.96,458.448L122,278.132L249.962,353.732L249.962,353.733L378,278.133L249.962,458.453L249.96,458.448Z" style="fill:rgb(80,80,80);fill-rule:nonzero;"/>
                </g>
            </g>
            <g transform="matrix(1,0,0,1,-122,-41.5467)">
                <path d="M122.001,253.867L249.961,329.505L249.961,195.706L122.001,253.867ZM249.962,329.504L377.922,253.867L249.962,195.705L249.962,329.504Z" style="fill:rgb(64,64,64);fill-rule:nonzero;"/>
            </g>
            <g transform="matrix(1,0,0,1,-122,-41.5467)">
                <path d="M250,458.399L250,353.711L378,278.133L250,458.399ZM377.924,253.867L250,329.482L250,41.61L377.924,253.867Z" style="fill-opacity:0.4;fill-rule:nonzero;"/>
            </g>
        </g>
        <g transform="matrix(1,-6.16298e-33,1.66533e-16,1,122.086,8.1582)">
            <path d="M257.914,41.842C313.106,41.842 357.914,86.65 357.914,141.842C357.914,197.033 313.106,241.842 257.914,241.842C202.723,241.842 157.914,197.033 157.914,141.842C157.914,86.65 202.723,41.842 257.914,41.842ZM257.914,51.842C307.586,51.842 347.914,92.169 347.914,141.842C347.914,191.514 307.586,231.842 257.914,231.842C208.242,231.842 167.914,191.514 167.914,141.842C167.914,92.169 208.242,51.842 257.914,51.842Z" style="fill:rgb(64,64,64);"/>
        </g>
    </g>
</svg>
