<?xml version="1.0" encoding="UTF-8" standalone="no"?>
<!DOCTYPE svg PUBLIC "-//W3C//DTD SVG 1.1//EN" "http://www.w3.org/Graphics/SVG/1.1/DTD/svg11.dtd">
<svg width="100%" height="100%" viewBox="0 0 500 300" version="1.1" xmlns="http://www.w3.org/2000/svg" xmlns:xlink="http://www.w3.org/1999/xlink" xml:space="preserve" xmlns:serif="http://www.serif.com/" style="fill-rule:evenodd;clip-rule:evenodd;stroke-linejoin:round;stroke-miterlimit:1.41421;">
    <g transform="matrix(0.974556,0,0,0.914834,7.21512,10.1783)">
        <path d="M505.65,-3.474C505.65,-7.7 502.435,-11.126 498.468,-11.126C441.042,-11.126 57.205,-11.126 -0.221,-11.126C-4.188,-11.126 -7.403,-7.7 -7.403,-3.474C-7.403,40.902 -7.403,264.775 -7.403,309.151C-7.403,313.377 -4.188,316.803 -0.221,316.803C57.205,316.803 441.042,316.803 498.468,316.803C502.435,316.803 505.65,313.377 505.65,309.151C505.65,264.775 505.65,40.902 505.65,-3.474Z" style="fill:rgb(23,23,23);"/>
    </g>
    <g transform="matrix(0.638248,0,0,0.638248,88.6292,54.2628)">
        <path d="M180.022,221.407C153.376,247.481 113.143,257.562 75.798,243.969C23.935,225.093 -2.846,167.661 16.031,115.798C34.907,63.935 92.339,37.154 144.202,56.031C158.066,61.077 170.137,68.878 180.023,78.591C177.64,80.926 175.374,83.379 173.233,85.941C164.296,77.102 153.358,70.005 140.782,65.428C94.105,48.439 42.417,72.541 25.428,119.218C8.439,165.895 32.541,217.583 79.218,234.572C112.929,246.842 149.253,237.679 173.232,214.058C175.373,216.62 177.639,219.073 180.022,221.407Z" style="fill:rgb(38,38,38);"/>
        <path d="M151.693,131.596L134.74,132.277C134.903,121.396 131.496,114.685 124.482,112.132C120.961,110.851 117.742,110.901 114.837,112.288C111.918,113.67 109.898,115.903 108.781,118.974C107.64,122.109 107.793,124.885 109.236,127.317C110.671,129.73 114.325,133.403 120.155,138.332C126.573,143.724 131.449,148.394 134.776,152.325C138.115,156.261 140.257,160.809 141.236,165.952C142.199,171.104 141.657,176.508 139.595,182.174C136.429,190.871 131.197,197.173 123.911,201.083C116.619,205.005 107.899,205.701 97.748,203.171L92.328,218.06L79.866,213.525L85.258,198.712C69.562,191.108 62.928,177.956 65.32,159.272L86.419,161.263C84.254,172.769 88.19,180.341 98.224,183.993C102.913,185.7 106.803,185.807 109.859,184.285C112.915,182.764 115.039,180.365 116.237,177.076C117.476,173.672 117.311,170.687 115.737,168.136C114.168,165.572 110.056,161.558 103.42,156.087C97.437,151.218 92.931,146.93 89.928,143.189C86.915,139.474 84.963,135.083 84.081,130.032C83.202,124.969 83.772,119.648 85.792,114.098C88.443,106.813 92.991,101.034 99.405,96.763C105.815,92.505 113.868,91.406 123.564,93.466L127.749,81.968L140.212,86.504L136.026,98.002C146.359,103.231 152.379,111.119 154.077,121.671C153.119,124.914 152.321,128.225 151.693,131.596Z" style="fill:rgb(83,83,83);fill-rule:nonzero;"/>
    </g>
    <g transform="matrix(0.638248,0,0,0.638248,88.6292,54.2628)">
        <g>
            <path d="M287.209,112.676C285.082,117.953 283.393,123.452 282.186,129.129L269.013,97.763L208.63,130.078L238.683,141.017L256.772,131.393L265.875,150.913L280.185,156.122C280.848,167.073 283.276,177.551 287.189,187.273L226.059,215.779L184.223,126.06L273.941,84.224L287.209,112.676Z" style="fill:rgb(68,68,68);fill-rule:nonzero;"/>
            <path d="M287.216,112.658C285.086,117.941 283.394,123.446 282.186,129.129L269.013,97.763L208.63,130.078L238.683,141.017L256.772,131.393L265.875,150.913L280.185,156.122C280.531,161.835 281.357,167.419 282.624,172.834L242.187,171.465L184.169,126.037L273.941,84.222L287.216,112.658Z" style="fill:rgb(83,83,83);fill-rule:nonzero;"/>
            <path d="M287.187,187.27L226.06,215.774L256.772,131.393L265.875,150.913L280.185,156.122C280.848,167.071 283.275,177.548 287.187,187.27ZM287.21,112.675C285.082,117.952 283.393,123.452 282.186,129.129L269.013,97.763L273.941,84.222L287.21,112.675Z" style="fill-opacity:0.4;"/>
        </g>
        <path d="M315,225.97C297.515,240.948 274.806,250 250,250C194.808,250 150,205.192 150,150C150,94.808 194.808,50 250,50C274.806,50 297.515,59.052 315,74.03C312.451,76.213 310.014,78.522 307.697,80.947C292.071,67.873 271.948,60 250,60C200.328,60 160,100.328 160,150C160,199.672 200.328,240 250,240C271.948,240 292.071,232.127 307.697,219.053C310.014,221.478 312.451,223.787 315,225.97Z" style="fill:rgb(38,38,38);"/>
    </g>
    <g transform="matrix(0.638248,0,0,0.638248,88.6292,54.2628)">
        <g transform="matrix(0.315555,0.114853,-0.114853,0.315555,363.551,69.5204)">
            <g transform="matrix(1,0,0,1,-122,-41.5467)">
                <path d="M249.962,41.548L377.924,253.867L249.962,329.504L249.962,329.506L122,253.867L249.961,41.55L249.962,41.547L249.962,41.547L249.962,41.547L249.962,41.548Z" style="fill:rgb(83,83,83);fill-rule:nonzero;"/>
            </g>
            <g transform="matrix(1,0,0,1,-122,-41.5467)">
                <path d="M249.96,458.448L122,278.132L249.962,353.732L249.962,353.733L378,278.133L249.962,458.453L249.96,458.448Z" style="fill:rgb(83,83,83);fill-rule:nonzero;"/>
            </g>
            <g transform="matrix(1,0,0,1,-122,-41.5467)">
                <path d="M122.001,253.867L249.961,329.505L249.961,195.706L122.001,253.867ZM249.962,329.504L377.922,253.867L249.962,195.705L249.962,329.504Z" style="fill:rgb(68,68,68);fill-rule:nonzero;"/>
            </g>
            <g transform="matrix(1,0,0,1,-122,-41.5467)">
                <path d="M250,458.399L250,353.711L378,278.133L250,458.399ZM377.924,253.867L250,329.482L250,41.61L377.924,253.867Z" style="fill-opacity:0.4;fill-rule:nonzero;"/>
            </g>
        </g>
        <g transform="matrix(0.939693,0.34202,-0.34202,0.939693,186.153,-71.4995)">
            <path d="M257.914,41.842C313.106,41.842 357.914,86.65 357.914,141.842C357.914,197.033 313.106,241.842 257.914,241.842C202.723,241.842 157.914,197.033 157.914,141.842C157.914,86.65 202.723,41.842 257.914,41.842ZM257.914,51.842C307.586,51.842 347.914,92.169 347.914,141.842C347.914,191.514 307.586,231.842 257.914,231.842C208.242,231.842 167.914,191.514 167.914,141.842C167.914,92.169 208.242,51.842 257.914,51.842Z" style="fill:rgb(38,38,38);"/>
        </g>
    </g>
</svg>
