<?xml version="1.0" encoding="UTF-8" standalone="no"?>
<!DOCTYPE svg PUBLIC "-//W3C//DTD SVG 1.1//EN" "http://www.w3.org/Graphics/SVG/1.1/DTD/svg11.dtd">
<svg width="100%" height="100%" viewBox="0 0 300 300" version="1.1" xmlns="http://www.w3.org/2000/svg" xmlns:xlink="http://www.w3.org/1999/xlink" xml:space="preserve" xmlns:serif="http://www.serif.com/" style="fill-rule:evenodd;clip-rule:evenodd;stroke-linejoin:round;stroke-miterlimit:2;">
    <g transform="matrix(0.585851,0,0,0.585851,0.0549408,-0.00596138)">
        <g transform="matrix(3.00909,0,0,2.14284,-147.742,-16.9428)">
            <path d="M219.244,10.711C219.244,9.166 218.35,7.911 217.25,7.911L51.091,7.911C49.991,7.911 49.098,9.166 49.098,10.711L49.098,75.089C49.098,76.634 49.991,77.888 51.091,77.888L217.25,77.888C218.35,77.888 219.244,76.634 219.244,75.089L219.244,10.711Z" style="fill:rgb(72,83,109);"/>
        </g>
        <g transform="matrix(2.11303,0,0,2.1527,-69.9776,-66.0671)">
            <path d="M275.371,86.422L33.073,86.422L33.073,265.004C33.073,266.95 34.682,268.529 36.664,268.529L271.78,268.529C273.762,268.529 275.371,266.95 275.371,265.004L275.371,86.422Z" style="fill:rgb(109,124,160);"/>
        </g>
        <g>
            <rect x="61" y="45" width="30" height="30" style="fill:rgb(109,124,160);fill-rule:nonzero;"/>
            <rect x="121" y="45" width="30" height="30" style="fill:rgb(109,124,160);fill-rule:nonzero;"/>
            <rect x="181" y="45" width="30" height="30" style="fill:rgb(109,124,160);fill-rule:nonzero;"/>
        </g>
        <g transform="matrix(0.65063,0,0,0.65063,89.4386,149.439)">
            <g transform="matrix(1,0,0,1,0.731891,-1.20408)">
                <path d="M488,280L488,232L446.456,232C442.137,197.378 428.414,164.592 406.784,137.216L440,104L408,72L374.784,105.216C347.408,83.586 314.622,69.863 280,65.544L280,24L232,24L232,65.544C197.378,69.863 164.592,83.586 137.216,105.216L104,72L72,104L105.216,137.216C83.586,164.592 69.863,197.378 65.544,232L24,232L24,280L65.544,280C69.863,314.622 83.586,347.408 105.216,374.784L72,408L104,440L137.216,406.784C164.592,428.414 197.378,442.137 232,446.456L232,488L280,488L280,446.456C314.622,442.137 347.408,428.414 374.784,406.784L408,440L440,408L406.784,374.784C428.414,347.408 442.137,314.622 446.456,280L488,280Z" style="fill:rgb(61,70,91);fill-rule:nonzero;"/>
            </g>
            <circle cx="256" cy="256" r="152" style="fill:rgb(134,151,203);"/>
            <path d="M220.44,327.68C193.252,314.192 175.984,286.35 175.984,256C175.984,212.105 212.105,175.984 256,175.984C268.337,175.984 280.508,178.837 291.56,184.32L284.44,198.648C275.608,194.246 265.868,191.969 256,192C255.988,192 255.976,192 255.963,192C220.854,192 191.963,220.891 191.963,256C191.963,280.291 205.792,302.572 227.56,313.352L220.44,327.68Z" style="fill:rgb(109,124,160);fill-rule:nonzero;"/>
            <g>
                <path d="M144,256L128,256C128.083,185.813 185.813,128.083 256,128L256,144C194.583,144.066 144.066,194.583 144,256Z" style="fill:rgb(72,83,109);fill-rule:nonzero;"/>
                <path d="M256,384L256,368C317.417,367.934 367.934,317.417 368,256L384,256C383.917,326.187 326.187,383.917 256,384Z" style="fill:rgb(72,83,109);fill-rule:nonzero;"/>
                <rect x="128" y="272" width="16" height="16" style="fill:rgb(72,83,109);fill-rule:nonzero;"/>
                <path d="M368,224L384,224L384,240L368,240L368,224Z" style="fill:rgb(72,83,109);fill-rule:nonzero;"/>
                <rect x="344" y="200" width="16" height="16" style="fill:rgb(72,83,109);fill-rule:nonzero;"/>
            </g>
            <path d="M264,352L248,352L248,252.688L338.344,162.344L349.656,173.656L264,259.312L264,352Z" style="fill:rgb(61,70,91);fill-rule:nonzero;"/>
        </g>
        <g transform="matrix(2.70997,0,0,2.1933,-272.246,-73.5934)">
            <path d="M289.386,36.495C289.386,34.885 288.329,33.578 287.026,33.578L194.963,33.578L194.963,267.009L286.554,267.009C288.117,267.009 289.386,265.441 289.386,263.509L289.386,36.495Z" style="fill-opacity:0.23;"/>
        </g>
    </g>
</svg>
