<?xml version="1.0" encoding="UTF-8" standalone="no"?>
<!DOCTYPE svg PUBLIC "-//W3C//DTD SVG 1.1//EN" "http://www.w3.org/Graphics/SVG/1.1/DTD/svg11.dtd">
<svg width="100%" height="100%" viewBox="0 0 500 300" version="1.1" xmlns="http://www.w3.org/2000/svg" xmlns:xlink="http://www.w3.org/1999/xlink" xml:space="preserve" xmlns:serif="http://www.serif.com/" style="fill-rule:evenodd;clip-rule:evenodd;stroke-linejoin:round;stroke-miterlimit:1.41421;">
    <g transform="matrix(0.974556,0,0,0.914834,7.21512,10.1783)">
        <path d="M505.65,-3.474C505.65,-7.7 502.435,-11.126 498.468,-11.126C441.042,-11.126 57.205,-11.126 -0.221,-11.126C-4.188,-11.126 -7.403,-7.7 -7.403,-3.474C-7.403,40.902 -7.403,264.775 -7.403,309.151C-7.403,313.377 -4.188,316.803 -0.221,316.803C57.205,316.803 441.042,316.803 498.468,316.803C502.435,316.803 505.65,313.377 505.65,309.151C505.65,264.775 505.65,40.902 505.65,-3.474Z" style="fill:rgb(23,23,23);"/>
    </g>
    <g transform="matrix(2.5,0,0,2.5,176.707,75)">
        <g transform="matrix(1.04764,0,0,1.04764,-230.402,-104.098)">
            <path d="M270.509,133.091C271.136,133.091 271.671,133.549 271.765,134.169L272.062,136.097C272.195,136.966 272.734,137.666 273.538,138.016C274.345,138.369 275.223,138.289 275.95,137.793L277.499,136.745C278.003,136.404 278.681,136.467 279.112,136.899L281.606,139.391C282.051,139.835 282.105,140.537 281.733,141.044L280.579,142.617C280.059,143.325 279.945,144.199 280.267,145.016C280.588,145.834 281.266,146.398 282.128,146.564L283.965,146.916C284.565,147.032 284.999,147.556 285,148.166L285,151.691C285,152.319 284.541,152.853 283.921,152.949L281.993,153.245C281.123,153.379 280.423,153.917 280.073,154.722C279.722,155.527 279.804,156.407 280.296,157.133L281.345,158.682C281.687,159.188 281.622,159.865 281.191,160.296L278.699,162.789C278.255,163.235 277.553,163.288 277.046,162.917L275.94,162.105C275.227,161.582 274.314,161.471 273.495,161.809C272.679,162.148 272.11,162.871 271.976,163.746L271.768,165.102C271.672,165.723 271.138,166.181 270.51,166.181L266.985,166.181C266.374,166.181 265.85,165.747 265.734,165.15L265.381,163.312C265.216,162.451 264.652,161.772 263.834,161.452C263.019,161.13 262.141,161.246 261.435,161.764L259.862,162.918C259.352,163.288 258.652,163.235 258.208,162.791L255.716,160.297C255.285,159.866 255.22,159.188 255.562,158.684L256.611,157.135C257.104,156.407 257.185,155.529 256.834,154.723C256.483,153.919 255.784,153.38 254.915,153.247L252.986,152.95C252.365,152.855 251.907,152.32 251.907,151.693L251.907,148.167C251.907,147.558 252.341,147.033 252.941,146.917L254.778,146.565C255.64,146.399 256.318,145.836 256.639,145.017C256.961,144.2 256.847,143.326 256.327,142.618L255.173,141.045C254.801,140.537 254.855,139.836 255.3,139.392L257.793,136.9C258.226,136.469 258.903,136.405 259.407,136.746L261.408,138.1C262.119,138.581 262.981,138.673 263.775,138.341C264.568,138.012 265.117,137.34 265.278,136.498L265.734,134.124C265.848,133.525 266.374,133.091 266.984,133.091L270.509,133.091ZM282.455,150.601L282.455,149.219L281.649,149.065C279.937,148.735 278.535,147.569 277.898,145.948C277.262,144.324 277.496,142.516 278.527,141.111L279.035,140.419L278.057,139.442L277.379,139.901C275.937,140.878 274.121,141.045 272.524,140.349C270.926,139.653 269.814,138.208 269.549,136.485L269.418,135.636L268.036,135.636L267.78,136.978C267.458,138.651 266.326,140.04 264.751,140.693C263.178,141.344 261.393,141.165 259.982,140.208L258.851,139.442L257.874,140.419L258.381,141.111C259.411,142.518 259.646,144.325 259.01,145.948C258.374,147.569 256.973,148.735 255.259,149.065L254.454,149.219L254.454,150.601L255.303,150.73C257.025,150.995 258.47,152.108 259.167,153.705C259.863,155.302 259.696,157.117 258.719,158.56L258.259,159.239L259.237,160.216L259.929,159.708C261.334,158.68 263.141,158.443 264.765,159.079C266.387,159.716 267.552,161.117 267.882,162.83L268.036,163.636L269.418,163.636L269.46,163.358C269.731,161.598 270.874,160.14 272.521,159.457C274.168,158.777 276.007,159.001 277.445,160.052L277.67,160.217L278.648,159.24L278.188,158.561C277.211,157.119 277.043,155.305 277.74,153.706C278.437,152.109 279.881,150.996 281.604,150.732L282.453,150.601L282.455,150.601ZM268.454,143.272C264.945,143.272 262.09,146.127 262.09,149.636C262.09,153.145 264.945,155.999 268.454,155.999C271.962,155.999 274.817,153.145 274.817,149.636C274.817,146.127 271.962,143.272 268.454,143.272ZM268.454,153.454C266.349,153.454 264.635,151.741 264.635,149.636C264.635,147.531 266.349,145.818 268.454,145.818C270.559,145.818 272.272,147.531 272.272,149.636C272.272,151.741 270.559,153.454 268.454,153.454Z" style="fill:rgb(83,83,83);fill-rule:nonzero;"/>
        </g>
        <g transform="matrix(1.33333,0,0,1.33333,-8.50055,-10)">
            <path d="M38.5,32L47.5,32L47.5,21L38.5,21L36.5,21L29.5,21L27.5,21L20.5,21L18.5,21L9.5,21L9.5,50L29.5,50L29.5,41L29.5,39L29.5,32L38.5,32ZM38.5,23L45.5,23L45.5,30L38.5,30L38.5,23ZM20.5,23L27.5,23L27.5,30L20.5,30L20.5,23ZM11.5,23L18.5,23L18.5,30L11.5,30L11.5,23ZM11.5,32L18.5,32L18.5,39L11.5,39L11.5,32ZM18.5,48L11.5,48L11.5,41L18.5,41L18.5,48ZM27.5,48L20.5,48L20.5,41L27.5,41L27.5,48ZM27.5,39L20.5,39L20.5,32L27.5,32L27.5,39ZM29.5,30L29.5,23L36.5,23L36.5,30L29.5,30Z" style="fill:rgb(38,38,38);fill-rule:nonzero;"/>
        </g>
        <g transform="matrix(0.488945,0,0,0.488945,-93.4051,-43.3417)">
            <path d="M303.18,68.191L305.906,68.191L305.906,70.914L305.906,70.918L305.906,79.099L319.541,79.099L322.268,79.099L322.268,158.181C322.268,158.187 322.268,158.194 322.268,158.201L322.268,160.909L316.814,160.909L316.814,158.19L316.814,158.181L316.814,111.823L185.92,111.823L185.92,218.174L251.367,218.174C251.389,218.174 251.411,218.174 251.433,218.175L254.094,218.175L254.094,223.628L251.373,223.628L251.367,223.628L183.193,223.628L183.187,223.628L180.466,223.628L180.466,220.929C180.466,220.92 180.466,220.91 180.466,220.901L180.466,85.305C180.466,85.305 180.466,79.099 180.466,79.099L183.193,79.099L183.193,79.099L196.828,79.099L196.828,70.918L196.828,70.917L196.828,68.191L221.37,68.191L221.37,79.099L281.363,79.099L281.363,70.918L281.363,70.915L281.363,68.191L284.089,68.191L284.09,68.191L303.179,68.191L303.18,68.191ZM196.828,84.553L185.92,84.553L185.92,106.369L316.814,106.369L316.814,84.553L305.906,84.553L305.906,92.734L305.906,92.734L305.906,95.461L303.202,95.461L303.197,95.461L303.179,95.461L284.09,95.461C284.083,95.461 284.075,95.461 284.068,95.461L281.363,95.461L281.363,92.734L281.363,92.734L281.363,84.553L221.37,84.553L221.37,92.734L221.37,95.461L196.828,95.461L196.828,92.748L196.828,92.734L196.828,84.553ZM300.452,73.645L286.817,73.645L286.817,90.007L300.452,90.007L300.452,73.645ZM215.916,73.645L202.282,73.645L202.282,90.007L215.916,90.007L215.916,73.645Z" style="fill:rgb(38,38,38);fill-rule:nonzero;"/>
        </g>
    </g>
</svg>
