<?xml version="1.0" encoding="UTF-8" standalone="no"?>
<!DOCTYPE svg PUBLIC "-//W3C//DTD SVG 1.1//EN" "http://www.w3.org/Graphics/SVG/1.1/DTD/svg11.dtd">
<svg width="100%" height="100%" viewBox="0 0 300 300" version="1.1" xmlns="http://www.w3.org/2000/svg" xmlns:xlink="http://www.w3.org/1999/xlink" xml:space="preserve" xmlns:serif="http://www.serif.com/" style="fill-rule:evenodd;clip-rule:evenodd;stroke-linejoin:round;stroke-miterlimit:2;">
    <g transform="matrix(0.585938,0,0,0.590256,0,14.1479)">
        <path d="M40,84.297L440,84.297C462.001,84.297 480.001,102.297 480.001,124.297L480.001,172.298C480.001,194.298 462.001,212.298 440,212.298L40,212.298C18,212.296 0,194.296 0,172.297L0,124.296C0,102.297 18,84.297 40,84.297Z" style="fill:rgb(72,83,109);fill-rule:nonzero;"/>
        <g transform="matrix(0.689501,0.295454,-0.296984,0.682966,139.399,-91.1028)">
            <g>
                <path d="M415.981,35.884L371.846,5.329C363.011,15.002 348.172,16.902 337.102,9.238L115.946,328.678C127.016,336.342 130.461,350.9 124.517,362.574L168.651,393.129C177.486,383.456 192.325,381.556 203.395,389.22C214.465,396.884 217.91,411.442 211.966,423.116L256.1,453.671C264.935,443.998 279.774,442.098 290.844,449.762L512,130.321C500.93,122.657 497.485,108.099 503.429,96.425L459.295,65.87C450.46,75.543 435.621,77.443 424.551,69.779C413.482,62.116 410.037,47.557 415.981,35.884Z" style="fill:rgb(134,151,203);fill-rule:nonzero;"/>
                <g transform="matrix(-0.5692,0.8222,-0.8222,-0.5692,674.513,157.633)">
                    <rect x="163.338" y="179.547" width="265.243" height="151.957" style="fill:rgb(61,70,91);"/>
                </g>
                <g transform="matrix(0.171619,0.120496,-0.120233,0.171994,303.888,141.118)">
                    <path d="M512,198.527L342.43,162.737L256,12.532L256,428.747L414.213,499.468L395.848,327.139L512,198.527Z" style="fill:rgb(109,124,160);fill-rule:nonzero;"/>
                    <path d="M169.57,162.737L0,198.527L116.152,327.139L97.787,499.468L256,428.747L256,12.532L169.57,162.737Z" style="fill:rgb(134,151,203);fill-rule:nonzero;"/>
                </g>
                <g>
                    <path d="M319.075,74.214C317.38,74.214 315.669,73.717 314.171,72.679L299.981,62.855C296.062,60.142 295.085,54.766 297.798,50.848C300.511,46.929 305.888,45.952 309.805,48.665L323.995,58.489C327.914,61.202 328.891,66.578 326.178,70.496C324.502,72.916 321.811,74.214 319.075,74.214Z" style="fill:rgb(61,70,91);fill-rule:nonzero;"/>
                    <path d="M436.29,155.365C434.595,155.365 432.884,154.867 431.386,153.83L402.082,133.542C398.163,130.829 397.186,125.453 399.899,121.536C402.612,117.617 407.988,116.64 411.906,119.353L441.21,139.641C445.129,142.354 446.106,147.73 443.393,151.647C441.717,154.066 439.026,155.365 436.29,155.365ZM377.683,114.789C375.988,114.789 374.277,114.291 372.779,113.254L343.475,92.966C339.556,90.253 338.579,84.877 341.292,80.96C344.005,77.041 349.382,76.064 353.299,78.777L382.603,99.065C386.522,101.778 387.499,107.154 384.786,111.072C383.11,113.491 380.419,114.789 377.683,114.789Z" style="fill:rgb(61,70,91);fill-rule:nonzero;"/>
                    <path d="M479.783,185.477C478.088,185.477 476.377,184.979 474.879,183.942L460.689,174.118C456.77,171.405 455.793,166.029 458.506,162.111C461.219,158.192 466.596,157.215 470.513,159.928L484.703,169.752C488.622,172.465 489.599,177.841 486.886,181.759C485.211,184.178 482.519,185.477 479.783,185.477Z" style="fill:rgb(61,70,91);fill-rule:nonzero;"/>
                </g>
            </g>
            <g>
                <path d="M246.757,447.205L330.432,90.62L304.282,84.484L306.504,61.391L301.766,60.28L115.946,328.678C127.016,336.342 130.461,350.9 124.517,362.574L168.652,393.129C177.486,383.456 192.326,381.556 203.396,389.22C214.466,396.884 217.911,411.442 211.967,423.116L246.757,447.205Z" style="fill-opacity:0.1;fill-rule:nonzero;"/>
                <path d="M171.916,59.353L119.657,47.09C114.98,59.326 101.868,66.531 88.761,63.455L0,441.707C13.107,444.783 21.647,457.067 20.393,470.108L72.652,482.371C77.329,470.135 90.441,462.93 103.548,466.006C116.655,469.082 125.195,481.366 123.941,494.407L176.2,506.67C180.877,494.434 193.989,487.229 207.096,490.305L295.855,112.054C282.748,108.979 274.208,96.694 275.462,83.653L223.204,71.39C218.527,83.626 205.415,90.831 192.308,87.755C179.2,84.677 170.662,72.394 171.916,59.353Z" style="fill:rgb(134,151,203);fill-rule:nonzero;"/>
                <g>
                    <path d="M92.641,131.118C91.989,131.118 91.325,131.043 90.662,130.888L73.86,126.945C69.22,125.857 66.341,121.213 67.431,116.573C68.519,111.934 73.163,109.054 77.803,110.144L94.605,114.087C99.245,115.175 102.124,119.819 101.034,124.459C100.103,128.434 96.556,131.118 92.641,131.118Z" style="fill:rgb(61,70,91);fill-rule:nonzero;"/>
                    <path d="M231.436,163.686C230.784,163.686 230.121,163.611 229.457,163.456L194.758,155.313C190.118,154.225 187.239,149.581 188.329,144.941C189.417,140.302 194.058,137.422 198.701,138.512L233.4,146.655C238.04,147.743 240.919,152.387 239.829,157.027C238.898,161.003 235.352,163.686 231.436,163.686ZM162.039,147.402C161.387,147.402 160.724,147.327 160.06,147.172L125.361,139.029C120.721,137.941 117.842,133.297 118.932,128.657C120.02,124.017 124.662,121.138 129.304,122.228L164.003,130.371C168.643,131.459 171.522,136.103 170.432,140.743C169.5,144.719 165.955,147.402 162.039,147.402Z" style="fill:rgb(61,70,91);fill-rule:nonzero;"/>
                    <path d="M282.937,175.772C282.285,175.772 281.621,175.697 280.958,175.542L264.156,171.599C259.516,170.511 256.637,165.867 257.727,161.227C258.815,156.588 263.46,153.708 268.099,154.798L284.901,158.741C289.541,159.829 292.42,164.473 291.33,169.113C290.398,173.089 286.853,175.772 282.937,175.772Z" style="fill:rgb(61,70,91);fill-rule:nonzero;"/>
                    <g transform="matrix(-0.2285,0.9735,-0.9735,-0.2285,472.448,241.019)">
                        <rect x="8.095" y="231.729" width="265.257" height="151.965" style="fill:rgb(61,70,91);"/>
                    </g>
                </g>
                <g transform="matrix(0.204128,0.0474414,-0.0473381,0.204574,110.928,198.214)">
                    <path d="M512,198.527L342.43,162.737L256,12.532L256,428.747L414.213,499.468L395.848,327.139L512,198.527Z" style="fill:rgb(109,124,160);fill-rule:nonzero;"/>
                    <path d="M169.57,162.737L0,198.527L116.152,327.139L97.787,499.468L256,428.747L256,12.532L169.57,162.737Z" style="fill:rgb(134,151,203);fill-rule:nonzero;"/>
                </g>
            </g>
        </g>
        <path d="M456,484.297L40,484.297C18,484.297 0,466.297 0,444.296L0,156.297L456,156.297C478.001,156.297 496.001,174.297 496.001,196.297L496.001,444.297C496,466.297 478,484.297 456,484.297ZM32,156.297L0,156.297L0,124.296C0,141.896 14.4,156.297 32,156.297Z" style="fill:rgb(85,96,128);fill-rule:nonzero;"/>
        <path d="M496,384.296L432,384.296C401.2,384.296 376.001,359.097 376.001,328.297C376.001,297.497 401.2,272.297 432,272.297L496,272.297C504.8,272.297 512,279.497 512,288.297L512,368.297C512,377.097 504.8,384.296 496,384.296Z" style="fill:rgb(61,70,91);fill-rule:nonzero;"/>
        <path d="M456,468.297L40,468.297C18,468.297 0,450.297 0,428.296L0,444.296C0,466.297 18,484.297 40,484.297L456,484.297C478.001,484.297 496.001,466.297 496.001,444.296L496.001,428.296C496,450.297 478,468.297 456,468.297Z" style="fill:rgb(61,70,91);fill-rule:nonzero;"/>
        <path d="M456,156.297L32,156.297C14.4,156.297 0,141.896 0,124.296L0,140.296C0,157.896 14.4,172.297 32,172.297L456,172.297C478.001,172.297 496.001,190.297 496.001,212.297L496.001,196.297C496,174.297 478,156.297 456,156.297Z" style="fill:rgb(109,124,160);fill-rule:nonzero;"/>
    </g>
    <g transform="matrix(0.0845658,-5.53924e-18,-1.10785e-17,0.0845658,242.335,186.043)">
        <path d="M401.438,512L110.562,512C76.692,512 49.231,484.539 49.231,450.668L49.231,258.255C49.231,224.384 76.692,196.923 110.562,196.923L401.438,196.923C435.308,196.923 462.769,224.384 462.769,258.255L462.769,450.668C462.769,484.539 435.308,512 401.438,512Z" style="fill:rgb(109,124,160);fill-rule:nonzero;"/>
        <path d="M401.438,196.923L256,196.923L256,512L401.438,512C435.308,512 462.769,484.539 462.769,450.668L462.769,258.255C462.769,224.384 435.308,196.923 401.438,196.923Z" style="fill:rgb(134,151,203);fill-rule:nonzero;"/>
        <path d="M256,393.846C239.754,393.846 226.462,380.554 226.462,364.308L226.462,305.231C226.462,288.985 239.754,275.692 256,275.692C272.246,275.692 285.538,288.985 285.538,305.231L285.538,364.308C285.538,380.554 272.246,393.846 256,393.846Z" style="fill:rgb(61,70,91);fill-rule:nonzero;"/>
        <path d="M110.562,196.923L147.692,196.923L147.692,132.923C147.692,81.349 196.283,39.385 256,39.385C315.717,39.385 364.308,81.349 364.308,132.923L364.308,196.923L401.438,196.923C402.196,196.923 402.934,197.012 403.692,197.031L403.692,132.923C403.692,59.815 337.231,0 256,0C174.769,0 108.308,59.815 108.308,132.923L108.308,197.031C109.066,197.012 109.804,196.923 110.562,196.923Z" style="fill:rgb(85,96,128);fill-rule:nonzero;"/>
    </g>
    <g transform="matrix(0.82452,0,0,0.82452,-93.7535,60.8236)">
        <g transform="matrix(0.285377,0,0,0.285377,87.69,78.4753)">
            <path d="M525.403,444.832L502.161,444.832C502.161,429.057 505.774,414.692 513,401.738C520.227,388.785 530.514,378.62 543.86,371.246C557.206,363.871 572.408,360.184 589.465,360.184C615.507,360.184 635.852,366.917 650.5,380.384C664.727,393.463 672.045,411.138 672.455,433.411L672.455,436.916C672.15,449.586 668.022,463.383 660.071,478.307C651.803,493.826 637.252,513.192 616.418,536.406L537.122,624.71L672.455,624.71L672.455,644.141L508.411,644.141L508.411,626.441L605.872,517.553C622.017,499.212 633.215,484.078 639.465,472.15C645.715,460.223 648.84,448.616 648.84,437.329C648.84,419.63 643.567,405.618 633.02,395.293C622.473,384.969 607.955,379.807 589.465,379.807C570.325,379.807 554.862,385.835 543.079,397.891C531.295,409.947 525.403,425.594 525.403,444.832Z" style="fill:rgb(134,151,203);fill-rule:nonzero;"/>
        </g>
        <g transform="matrix(0.251132,0,0,0.271109,16.0759,168.455)">
            <rect x="1060.79" y="46.148" width="23.438" height="300" style="fill:rgb(134,151,203);fill-rule:nonzero;"/>
        </g>
        <g transform="matrix(0.285377,0,0,0.285377,88.2608,78.4753)">
            <path d="M390.442,644.141L366.028,644.141L486.731,379.688L390.757,379.688L390.757,359.766L511.926,359.766L511.926,373.242L390.442,644.141Z" style="fill:rgb(134,151,203);fill-rule:nonzero;"/>
        </g>
        <g transform="matrix(0.285377,0,0,0.285377,88.2608,78.4753)">
            <path d="M380.635,379.673L289.273,379.673L289.273,380.181L289.265,380.181L289.265,642.399L289.263,642.399L289.263,644.141L266.744,644.141L266.744,642.399L266.743,642.399L266.743,380.181L266.737,380.181L266.737,379.673L175.557,379.673L175.557,359.801L380.635,359.801L380.635,379.673Z" style="fill:rgb(134,151,203);fill-rule:nonzero;"/>
        </g>
    </g>
</svg>
