<?xml version="1.0" encoding="UTF-8" standalone="no"?>
<!DOCTYPE svg PUBLIC "-//W3C//DTD SVG 1.1//EN" "http://www.w3.org/Graphics/SVG/1.1/DTD/svg11.dtd">
<svg width="100%" height="100%" viewBox="0 0 500 300" version="1.1" xmlns="http://www.w3.org/2000/svg" xmlns:xlink="http://www.w3.org/1999/xlink" xml:space="preserve" xmlns:serif="http://www.serif.com/" style="fill-rule:evenodd;clip-rule:evenodd;stroke-linejoin:round;stroke-miterlimit:1.41421;">
    <g transform="matrix(0.974556,0,0,0.914834,7.21512,10.1783)">
        <path d="M505.65,-3.474C505.65,-7.7 502.435,-11.126 498.468,-11.126C441.042,-11.126 57.205,-11.126 -0.221,-11.126C-4.188,-11.126 -7.403,-7.7 -7.403,-3.474C-7.403,40.902 -7.403,264.775 -7.403,309.151C-7.403,313.377 -4.188,316.803 -0.221,316.803C57.205,316.803 441.042,316.803 498.468,316.803C502.435,316.803 505.65,313.377 505.65,309.151C505.65,264.775 505.65,40.902 505.65,-3.474Z" style="fill:rgb(23,23,23);"/>
    </g>
    <g transform="matrix(0.701799,0,0,0.701799,74.5503,44.9078)">
        <path d="M135.645,86.919L151.042,86.919L151.041,86.921L153.186,86.921L153.186,91.46L149.412,91.46L149.412,95.706L148.846,95.706L148.846,95.706L139.786,95.706L139.787,95.703L127.835,95.703C117.332,95.705 108.791,104.248 108.791,114.747C108.791,125.248 117.334,133.79 127.835,133.79L354.57,133.79C354.578,133.79 354.585,133.789 354.593,133.789C361.955,133.789 368.653,136.668 373.635,141.352L373.635,114.747C373.635,104.247 365.094,95.705 354.592,95.703L351.997,95.703L351.997,91.178L347.486,91.178L347.486,86.914L354.593,86.914C369.939,86.914 382.425,99.4 382.425,114.747L382.425,163.808L382.425,163.808L382.425,172.597L382.425,172.597L382.425,181.386L382.425,181.386L373.636,181.386L373.636,161.622C373.636,151.127 365.101,142.587 354.608,142.579L354.593,142.58L127.835,142.58C120.471,142.58 113.772,139.7 108.789,135.015L108.789,253.006L108.791,253.006L108.791,261.586L108.791,261.586L108.791,265.186C108.791,265.209 108.794,265.231 108.794,265.254C108.794,275.755 117.337,284.298 127.837,284.298L354.595,284.298C365.095,284.298 373.638,275.755 373.638,265.254L373.638,260.487L325.303,260.487L325.295,260.488C325.282,260.488 325.27,260.486 325.257,260.486L325.225,260.485L382.425,260.485L382.425,265.497C382.294,280.731 369.862,293.085 354.595,293.087L127.837,293.087C112.536,293.087 100.082,280.674 100.009,265.389C100.007,265.344 100.002,265.299 100.002,265.254L100.002,261.586L100.002,261.586L100.002,256.215C100.001,256.173 100,256.131 100,256.089L100,114.746C100,114.715 100.004,114.685 100.005,114.653C100.055,99.349 112.519,86.913 127.835,86.913L135.645,86.913L135.645,86.919ZM139.573,119.146L139.559,119.147C139.553,119.147 139.547,119.146 139.541,119.146L127.836,119.146C125.409,119.146 123.442,117.179 123.442,114.752C123.442,112.325 125.409,110.357 127.836,110.357L136.125,110.357L136.125,110.357L145.184,110.357L145.184,110.357L283.957,110.357L283.956,110.357L315.948,110.357L315.949,110.357L348.728,110.357C351.157,110.359 353.123,112.326 353.123,114.752C353.123,117.177 351.157,119.144 348.728,119.146L315.35,119.146L315.336,119.147L315.319,119.146L139.573,119.146Z" style="fill:rgb(38,38,38);fill-rule:nonzero;"/>
    </g>
    <g transform="matrix(0.701799,0,0,0.701799,74.5503,44.9078)">
        <path d="M144.075,110.357L138.775,110.357L195.904,8.105L217.083,19.938L215.954,21.957C213.841,25.739 213.595,28.125 214.86,32.591C217.416,41.621 225.826,46.319 234.856,43.763C239.322,42.498 241.225,41.039 243.338,37.257L244.466,35.237L265.645,47.07L241.694,89.938L232.936,96.127L237.005,88.845L227.598,83.589L229.855,79.55L239.262,84.806L259.349,48.852L246.169,41.488C243.754,45.038 240.972,46.841 236.117,48.215C224.693,51.45 213.641,45.275 210.407,33.851C209.032,28.996 209.109,25.682 210.867,21.767L197.686,14.401L177.599,50.354L187.006,55.61L184.749,59.649L175.342,54.393L144.075,110.357ZM221.885,80.399L210.459,74.015L212.716,69.976L224.142,76.36L221.885,80.399ZM201.889,69.227L190.463,62.843L192.719,58.804L204.146,65.188L201.889,69.227Z" style="fill:rgb(83,83,83);fill-rule:nonzero;"/>
    </g>
    <g transform="matrix(0.701799,0,0,0.701799,81.5683,44.9078)">
        <path d="M196.916,110.357L301.595,34.596L315.806,54.231L313.934,55.586C310.427,58.124 309.201,60.182 308.467,64.761C306.983,74.019 312.626,81.816 321.884,83.299C326.463,84.033 328.801,83.511 332.307,80.973L334.18,79.618L348.39,99.253L333.048,110.357L325.164,110.357L341.935,98.219L333.091,85.999C329.41,88.2 326.13,88.662 321.152,87.864C309.441,85.987 302.025,75.741 303.902,64.029C304.7,59.051 306.164,56.08 309.404,53.273L300.561,41.051L267.229,65.175L273.54,73.896L269.796,76.606L263.484,67.885L204.8,110.357L196.916,110.357ZM294.22,110.357L287.046,100.444L290.79,97.734L298.457,108.327L295.653,110.357L294.22,110.357ZM281.296,92.499L273.629,81.905L277.373,79.195L285.04,89.789L281.296,92.499Z" style="fill:rgb(83,83,83);fill-rule:nonzero;"/>
    </g>
    <g transform="matrix(0.701799,0,0,0.701799,74.5503,44.9078)">
        <path d="M382.427,260.487L382.427,265.258C382.427,265.338 382.426,265.418 382.425,265.497L382.425,260.485L325.225,260.485C325.08,260.483 324.937,260.474 324.797,260.458C324.752,260.453 324.708,260.444 324.664,260.437C324.541,260.42 324.421,260.399 324.302,260.371C324.254,260.36 324.207,260.347 324.159,260.334C324.043,260.303 323.93,260.268 323.818,260.228C323.771,260.212 323.726,260.195 323.68,260.177C323.562,260.131 323.447,260.079 323.335,260.023C323.299,260.005 323.262,259.989 323.227,259.97C323.085,259.895 322.949,259.813 322.817,259.723C322.775,259.695 322.736,259.662 322.695,259.632C322.604,259.566 322.516,259.497 322.43,259.424C322.382,259.382 322.335,259.339 322.288,259.294C322.208,259.219 322.13,259.14 322.056,259.059C322.019,259.019 321.981,258.98 321.945,258.937C321.836,258.809 321.733,258.676 321.639,258.536C321.637,258.534 321.636,258.533 321.635,258.531L298.199,223.379C298.035,223.134 297.897,222.874 297.787,222.604C297.745,222.503 297.712,222.401 297.679,222.299C297.669,222.267 297.656,222.237 297.646,222.206C297.613,222.097 297.588,221.987 297.564,221.876C297.557,221.849 297.549,221.822 297.544,221.794C297.524,221.694 297.511,221.593 297.498,221.493C297.493,221.452 297.485,221.412 297.481,221.371C297.473,221.288 297.471,221.204 297.468,221.121C297.465,221.061 297.46,221 297.46,220.94C297.46,220.877 297.465,220.815 297.468,220.753C297.471,220.672 297.473,220.591 297.481,220.509C297.485,220.467 297.493,220.424 297.499,220.382C297.511,220.283 297.524,220.184 297.543,220.086C297.549,220.057 297.557,220.029 297.564,220C297.588,219.891 297.613,219.782 297.646,219.673C297.655,219.642 297.668,219.612 297.678,219.581C297.711,219.479 297.745,219.377 297.786,219.276C297.896,219.006 298.034,218.746 298.198,218.501L321.634,183.345C321.635,183.342 321.637,183.34 321.639,183.338C321.718,183.219 321.803,183.104 321.894,182.994C321.948,182.928 322.007,182.868 322.063,182.806C322.104,182.762 322.143,182.715 322.185,182.672C322.258,182.599 322.335,182.533 322.411,182.466C322.441,182.44 322.47,182.411 322.501,182.385C322.573,182.326 322.648,182.273 322.723,182.219C322.764,182.189 322.803,182.157 322.846,182.129C322.91,182.087 322.976,182.049 323.041,182.01C323.099,181.975 323.157,181.938 323.218,181.906C323.268,181.88 323.32,181.857 323.372,181.832C323.45,181.794 323.528,181.755 323.609,181.722C323.645,181.706 323.683,181.695 323.72,181.681C323.817,181.644 323.913,181.607 324.013,181.577C324.037,181.569 324.062,181.565 324.087,181.558C324.199,181.526 324.311,181.495 324.426,181.473C324.446,181.468 324.466,181.467 324.487,181.463C324.623,181.438 324.761,181.418 324.901,181.406C325.027,181.395 325.154,181.387 325.281,181.387C325.284,181.387 325.286,181.386 325.289,181.386L373.636,181.386L373.636,181.386L382.425,181.386L382.425,181.386L386.726,181.386C386.757,181.385 386.787,181.381 386.817,181.381C389.239,181.381 391.209,179.411 391.209,176.989C391.209,174.568 389.24,172.599 386.817,172.597L382.425,172.597L382.425,163.808L386.817,163.808C394.087,163.81 399.998,169.722 400,176.989L400,247.306C400,254.573 394.089,260.485 386.819,260.487L382.427,260.487ZM327.641,190.175L307.134,220.938L327.641,251.696L386.817,251.696C389.239,251.696 391.209,249.725 391.209,247.304L391.209,189.415C389.889,189.883 388.473,190.145 386.999,190.166C386.939,190.168 386.881,190.175 386.817,190.175L327.641,190.175ZM367.466,214.144C367.466,218.461 364.932,222.178 361.276,223.916L362.722,238.318L350.559,238.318L352.004,223.916C348.348,222.178 345.814,218.461 345.814,214.144C345.814,208.165 350.661,203.318 356.64,203.318C362.619,203.318 367.466,208.165 367.466,214.144Z" style="fill:rgb(83,83,83);fill-rule:nonzero;"/>
    </g>
    <g transform="matrix(0.668795,0,0,0.668795,73.8523,51.6954)">
        <g transform="matrix(0.285377,0,0,0.285377,87.69,78.4753)">
            <path d="M525.403,444.832L502.161,444.832C502.161,429.057 505.774,414.692 513,401.738C520.227,388.785 530.514,378.62 543.86,371.246C557.206,363.871 572.408,360.184 589.465,360.184C615.507,360.184 635.852,366.917 650.5,380.384C664.727,393.463 672.045,411.138 672.455,433.411L672.455,436.916C672.15,449.586 668.022,463.383 660.071,478.307C651.803,493.826 637.252,513.192 616.418,536.406L537.122,624.71L672.455,624.71L672.455,644.141L508.411,644.141L508.411,626.441L605.872,517.553C622.017,499.212 633.215,484.078 639.465,472.15C645.715,460.223 648.84,448.616 648.84,437.329C648.84,419.63 643.567,405.618 633.02,395.293C622.473,384.969 607.955,379.807 589.465,379.807C570.325,379.807 554.862,385.835 543.079,397.891C531.295,409.947 525.403,425.594 525.403,444.832Z" style="fill:rgb(38,38,38);fill-rule:nonzero;"/>
        </g>
        <g transform="matrix(0.251132,0,0,0.271109,16.0759,168.455)">
            <rect x="1060.79" y="46.148" width="23.438" height="300" style="fill:rgb(38,38,38);fill-rule:nonzero;"/>
        </g>
        <g transform="matrix(0.285377,0,0,0.285377,88.2608,78.4753)">
            <path d="M390.442,644.141L366.028,644.141L486.731,379.688L390.757,379.688L390.757,359.766L511.926,359.766L511.926,373.242L390.442,644.141Z" style="fill:rgb(38,38,38);fill-rule:nonzero;"/>
        </g>
        <g transform="matrix(0.285377,0,0,0.285377,88.2608,78.4753)">
            <path d="M380.635,379.673L289.273,379.673L289.273,380.181L289.265,380.181L289.265,642.399L289.263,642.399L289.263,644.141L266.744,644.141L266.744,642.399L266.743,642.399L266.743,380.181L266.737,380.181L266.737,379.673L175.557,379.673L175.557,359.801L380.635,359.801L380.635,379.673Z" style="fill:rgb(38,38,38);fill-rule:nonzero;"/>
        </g>
    </g>
</svg>
