<?xml version="1.0" encoding="UTF-8" standalone="no"?>
<!DOCTYPE svg PUBLIC "-//W3C//DTD SVG 1.1//EN" "http://www.w3.org/Graphics/SVG/1.1/DTD/svg11.dtd">
<svg width="100%" height="100%" viewBox="0 0 500 280" version="1.1" xmlns="http://www.w3.org/2000/svg" xmlns:xlink="http://www.w3.org/1999/xlink" xml:space="preserve" xmlns:serif="http://www.serif.com/" style="fill-rule:evenodd;clip-rule:evenodd;stroke-linejoin:round;stroke-miterlimit:2;">
    <g id="Combined-Shape-Copy-2" transform="matrix(2.05011,0,0,2.05011,-2184.42,-1297.15)">
        <path d="M1162.42,651L1138.63,674.815L1118.39,674.815L1118.39,751.023L1094.58,751.023L1094.58,675.815C1094.58,675.263 1094.13,674.815 1093.58,674.814L1066,674.797L1066.03,651L1162.42,651ZM1270.81,651L1270.81,712.919L1232.7,712.919L1232.7,727.208L1285.1,727.208L1285.1,651L1308.91,651L1308.91,751.023L1208.89,751.023L1208.89,689.104L1246.99,689.104L1246.99,674.815L1194.6,674.815L1156.5,712.919L1156,713L1156.5,751.023L1133.68,751.023C1133.13,751.023 1132.68,750.575 1132.68,750.023L1132.68,701.012L1182.69,651L1270.81,651Z" style="fill-rule:nonzero;"/>
    </g>
</svg>
