<?xml version="1.0" encoding="UTF-8" standalone="no"?>
<!DOCTYPE svg PUBLIC "-//W3C//DTD SVG 1.1//EN" "http://www.w3.org/Graphics/SVG/1.1/DTD/svg11.dtd">
<svg width="100%" height="100%" viewBox="0 0 500 275" version="1.1" xmlns="http://www.w3.org/2000/svg" xmlns:xlink="http://www.w3.org/1999/xlink" xml:space="preserve" xmlns:serif="http://www.serif.com/" style="fill-rule:evenodd;clip-rule:evenodd;stroke-linejoin:round;stroke-miterlimit:1.41421;">
    <g transform="matrix(0.951258,0,0,0.951258,-168.902,-339.69)">
        <path d="M525.403,444.832L502.161,444.832C502.161,429.057 505.774,414.692 513,401.738C520.227,388.785 530.514,378.62 543.86,371.246C557.206,363.871 572.408,360.184 589.465,360.184C615.507,360.184 635.852,366.917 650.5,380.384C664.727,393.463 672.045,411.138 672.455,433.411L672.455,436.916C672.15,449.586 668.022,463.383 660.071,478.307C651.803,493.826 637.252,513.192 616.418,536.406L537.122,624.71L672.455,624.71L672.455,644.141L508.411,644.141L508.411,626.441L605.872,517.553C622.017,499.212 633.215,484.078 639.465,472.15C645.715,460.223 648.84,448.616 648.84,437.329C648.84,419.63 643.567,405.618 633.02,395.293C622.473,384.969 607.955,379.807 589.465,379.807C570.325,379.807 554.862,385.835 543.079,397.891C531.295,409.947 525.403,425.594 525.403,444.832Z" style="fill:rgb(19,19,19);fill-rule:nonzero;"/>
    </g>
    <g transform="matrix(0.837107,0,0,0.903695,-407.616,-39.7577)">
        <rect x="1060.79" y="46.148" width="23.438" height="300" style="fill:rgb(19,19,19);fill-rule:nonzero;"/>
    </g>
    <g transform="matrix(0.951258,0,0,0.951258,-167,-339.69)">
        <path d="M390.442,644.141L366.028,644.141L486.731,379.688L390.757,379.688L390.757,359.766L511.926,359.766L511.926,373.242L390.442,644.141Z" style="fill:rgb(19,19,19);fill-rule:nonzero;"/>
    </g>
    <g transform="matrix(0.951258,0,0,0.951258,-167,-339.69)">
        <path d="M380.635,379.673L289.273,379.673L289.273,380.181L289.265,380.181L289.265,642.399L289.263,642.399L289.263,644.141L266.744,644.141L266.744,642.399L266.743,642.399L266.743,380.181L266.737,380.181L266.737,379.673L175.557,379.673L175.557,359.801L380.635,359.801L380.635,379.673Z" style="fill:rgb(19,19,19);fill-rule:nonzero;"/>
    </g>
</svg>
