<?xml version="1.0" encoding="UTF-8" standalone="no"?>
<!DOCTYPE svg PUBLIC "-//W3C//DTD SVG 1.1//EN" "http://www.w3.org/Graphics/SVG/1.1/DTD/svg11.dtd">
<svg width="100%" height="100%" viewBox="0 0 100 100" version="1.1" xmlns="http://www.w3.org/2000/svg" xmlns:xlink="http://www.w3.org/1999/xlink" xml:space="preserve" xmlns:serif="http://www.serif.com/" style="fill-rule:evenodd;clip-rule:evenodd;stroke-linejoin:round;stroke-miterlimit:1.41421;">
    <g transform="matrix(0.23553,0,0,0.23553,5,5)">
        <path d="M336.764,45.945L45.354,45.945C20.346,45.945 0,65.484 0,89.5L0,292.617C0,316.633 20.346,336.172 45.354,336.172L336.764,336.172C361.772,336.172 382.117,316.633 382.117,292.617L382.117,89.5C382.117,65.484 361.772,45.945 336.764,45.945ZM336.764,297.72L45.354,297.72C41.678,297.72 38.454,295.336 38.454,292.617L38.454,116.359L170.251,227.629C172.953,229.911 176.389,231.167 179.927,231.167L202.186,231.168C205.722,231.168 209.16,229.911 211.863,227.629L343.666,116.355L343.666,292.619C343.664,295.336 340.439,297.72 336.764,297.72ZM191.059,192.987L62.87,84.397L319.248,84.397L191.059,192.987Z" style="fill:rgb(23,23,23);fill-rule:nonzero;"/>
    </g>
</svg>
