<?xml version="1.0" encoding="UTF-8" standalone="no"?>
<!DOCTYPE svg PUBLIC "-//W3C//DTD SVG 1.1//EN" "http://www.w3.org/Graphics/SVG/1.1/DTD/svg11.dtd">
<svg width="100%" height="100%" viewBox="0 0 500 300" version="1.1" xmlns="http://www.w3.org/2000/svg" xmlns:xlink="http://www.w3.org/1999/xlink" xml:space="preserve" xmlns:serif="http://www.serif.com/" style="fill-rule:evenodd;clip-rule:evenodd;stroke-linejoin:round;stroke-miterlimit:1.41421;">
    <g transform="matrix(0.974556,0,0,0.914834,7.21512,10.1783)">
        <path d="M505.65,-3.474C505.65,-7.7 502.435,-11.126 498.468,-11.126C441.042,-11.126 57.205,-11.126 -0.221,-11.126C-4.188,-11.126 -7.403,-7.7 -7.403,-3.474C-7.403,40.902 -7.403,264.775 -7.403,309.151C-7.403,313.377 -4.188,316.803 -0.221,316.803C57.205,316.803 441.042,316.803 498.468,316.803C502.435,316.803 505.65,313.377 505.65,309.151C505.65,264.775 505.65,40.902 505.65,-3.474Z" style="fill:rgb(23,23,23);"/>
    </g>
    <g transform="matrix(0.838402,0,0,0.838402,34.7363,23.3889)">
        <path d="M192.523,116.471L190.368,114.316L272.944,31.74L288.092,46.889L286.648,48.334C283.943,51.039 283.16,53.006 283.16,57.105C283.16,62.765 285.965,67.365 290.384,69.713L287.336,72.634C282.288,69.428 279.073,63.791 279.073,57.105C279.073,52.649 279.936,49.852 282.371,46.948L272.944,37.519L247.227,63.235L253.956,69.963L251.067,72.853L244.338,66.124L196.146,114.316L198.301,116.471L192.523,116.471ZM263.326,85.114L255.153,76.941L258.042,74.052L266.215,82.225L263.326,85.114Z" style="fill:rgb(38,38,38);fill-rule:nonzero;"/>
    </g>
    <g transform="matrix(0.91588,0,0,0.91588,152.113,78.0573)">
        <path d="M37.525,47.41L34.112,16.69C33.921,14.961 32.462,13.654 30.721,13.654L3.413,13.654C1.529,13.654 0,15.183 0,17.068C0,18.953 1.529,20.481 3.413,20.481L27.665,20.481L30.742,48.165C30.935,49.911 32.413,51.201 34.128,51.201C34.254,51.201 34.382,51.194 34.509,51.179C36.383,50.97 37.733,49.284 37.525,47.41Z" style="fill:rgb(38,38,38);fill-rule:nonzero;"/>
    </g>
    <g transform="matrix(0.91588,0,0,0.91588,152.113,78.0573)">
        <path d="M47.766,156.639L44.353,125.919C44.145,124.043 42.45,122.693 40.585,122.903C38.711,123.111 37.361,124.797 37.569,126.671L40.982,157.391C41.175,159.137 42.653,160.427 44.368,160.427C44.494,160.427 44.622,160.42 44.75,160.406C46.624,160.199 47.974,158.513 47.766,156.639Z" style="fill:rgb(38,38,38);fill-rule:nonzero;"/>
    </g>
    <g transform="matrix(0.91588,0,0,0.91588,152.113,78.0573)">
        <path d="M47.787,153.601C38.376,153.601 30.72,161.257 30.72,170.668C30.72,180.079 38.376,187.735 47.787,187.735C57.198,187.735 64.854,180.079 64.854,170.668C64.854,161.257 57.197,153.601 47.787,153.601ZM47.787,180.907C42.14,180.907 37.547,176.314 37.547,170.667C37.547,165.02 42.14,160.427 47.787,160.427C53.434,160.427 58.027,165.02 58.027,170.667C58.027,176.315 53.434,180.907 47.787,180.907Z" style="fill:rgb(38,38,38);fill-rule:nonzero;"/>
    </g>
    <g transform="matrix(0.91588,0,0,0.91588,152.113,78.0573)">
        <path d="M163.84,153.601C154.429,153.601 146.773,161.257 146.773,170.668C146.773,180.079 154.429,187.735 163.84,187.735C173.251,187.735 180.907,180.079 180.907,170.668C180.907,161.257 173.251,153.601 163.84,153.601ZM163.84,180.907C158.193,180.907 153.6,176.314 153.6,170.667C153.6,165.02 158.193,160.427 163.84,160.427C169.487,160.427 174.08,165.02 174.08,170.667C174.08,176.315 169.487,180.907 163.84,180.907Z" style="fill:rgb(38,38,38);fill-rule:nonzero;"/>
    </g>
    <g transform="matrix(0.91588,0,0,0.91588,152.113,78.0573)">
        <path d="M150.187,167.254L61.44,167.254C59.556,167.254 58.027,168.783 58.027,170.667C58.027,172.551 59.556,174.08 61.44,174.08L150.187,174.08C152.073,174.08 153.6,172.551 153.6,170.667C153.6,168.783 152.071,167.254 150.187,167.254Z" style="fill:rgb(38,38,38);fill-rule:nonzero;"/>
    </g>
    <g transform="matrix(0.838402,0,0,0.838402,34.7363,23.3889)">
        <path d="M227.403,121.138L181.355,121.138L188.164,199.442L334.62,199.442L345.086,151.3L352.721,151.3L341.271,203.965C340.898,205.677 339.379,206.901 337.626,206.901L184.746,206.901C182.813,206.901 181.2,205.423 181.032,203.495L173.574,117.733C173.482,116.691 173.835,115.66 174.54,114.889C175.247,114.119 176.244,113.681 177.289,113.681L227.403,113.681L227.403,121.138ZM275.239,113.682L307.815,113.682L307.815,113.681L340.355,113.681L340.355,121.138L307.815,121.138L307.815,121.138L275.239,121.138L275.239,121.138L260.134,121.138L260.134,113.681L275.239,113.681L275.239,113.682Z" style="fill:rgb(38,38,38);fill-rule:nonzero;"/>
    </g>
    <g transform="matrix(0.838402,0,0,0.838402,34.7363,23.3889)">
        <path d="M339.382,116.471L333.602,116.471L335.919,114.16L329.205,107.429L332.095,104.546L338.809,111.277L340.551,109.539L340.551,115.305L339.382,116.471ZM325.128,103.344L316.972,95.168L319.862,92.285L328.018,100.461L325.128,103.344ZM357.517,92.615L364.533,85.616L355.126,76.186C352.22,78.615 349.425,79.473 344.972,79.468C334.498,79.455 326.61,71.547 326.623,61.073C326.628,56.621 327.493,53.827 329.93,50.93L320.523,41.497L294.799,67.158L301.513,73.888L298.623,76.771L291.909,70.041L259.612,102.257L259.612,96.492L320.53,35.724L335.646,50.877L334.201,52.319C331.495,55.018 330.711,56.983 330.706,61.078C330.695,69.358 336.698,75.375 344.977,75.385C349.072,75.39 351.039,74.611 353.745,71.911L355.19,70.47L370.306,85.623L360.455,95.451L357.517,92.615ZM310.856,89.036L302.7,80.861L305.59,77.978L313.746,86.154L310.856,89.036Z" style="fill:rgb(38,38,38);fill-rule:nonzero;"/>
    </g>
    <g transform="matrix(0.0742598,0.0742598,-0.0742598,0.0742598,333.694,93.2823)">
        <path d="M194.354,3.217C192.205,1.085 189.043,0.352 186.178,1.315L53.123,45.642L13.533,6.052C10.398,3.026 5.42,3.069 2.339,6.149C-0.741,9.23 -0.784,14.208 2.242,17.343L43.317,58.418L0.452,186.978C-0.503,189.843 0.246,193.005 2.386,195.146L284.696,477.494C287.815,480.609 292.868,480.609 295.987,477.494L476.663,296.818C479.778,293.699 479.778,288.646 476.663,285.527L194.354,3.217ZM290.341,460.557L17.167,187.367L55.942,71.027L86.373,101.455C75.07,118.555 78.552,141.434 94.428,154.398C110.304,167.362 133.417,166.196 147.91,151.704C162.402,137.212 163.568,114.099 150.604,98.222C137.64,82.346 114.761,78.864 97.66,90.167L65.72,58.227L186.544,17.998L459.726,291.172L290.341,460.557ZM114.032,129.133C117.163,132.159 122.146,132.116 125.226,129.036C128.306,125.956 128.349,120.977 125.323,117.842L109.408,101.926C119.923,96.889 132.536,100.168 139.262,109.689C145.991,119.21 144.872,132.194 136.614,140.424C127.136,149.47 112.219,149.47 102.741,140.424C95.528,133.282 93.668,122.341 98.116,113.218L114.032,129.133Z" style="fill:rgb(83,83,83);fill-rule:nonzero;"/>
        <g transform="matrix(8.46642,-8.46642,8.46642,8.46642,-3184.08,1752.77)">
            <path d="M291.551,124.975L285.719,116.758L291.551,120.203L291.551,120.203L297.386,116.758L291.551,124.976L291.551,124.975ZM291.551,105.976L297.382,115.652L291.551,119.099L291.551,119.099L287.63,116.782L285.719,115.652L285.719,115.652L285.719,115.652L291.551,105.976L291.551,105.976L291.551,105.976L291.551,105.976L291.551,105.976Z" style="fill:rgb(83,83,83);fill-rule:nonzero;"/>
        </g>
    </g>
    <g transform="matrix(0.0742598,0.0742598,-0.0742598,0.0742598,239.322,86.5354)">
        <path d="M194.354,3.217C192.205,1.085 189.043,0.352 186.178,1.315L53.123,45.642L13.533,6.052C10.398,3.026 5.42,3.069 2.339,6.149C-0.741,9.23 -0.784,14.208 2.242,17.343L43.317,58.418L0.452,186.978C-0.503,189.843 0.246,193.005 2.386,195.146L284.696,477.494C287.815,480.609 292.868,480.609 295.987,477.494L476.663,296.818C479.778,293.699 479.778,288.646 476.663,285.527L194.354,3.217ZM290.341,460.557L17.167,187.367L55.942,71.027L86.373,101.455C75.07,118.555 78.552,141.434 94.428,154.398C110.304,167.362 133.417,166.196 147.91,151.704C162.402,137.212 163.568,114.099 150.604,98.222C137.64,82.346 114.761,78.864 97.66,90.167L65.72,58.227L186.544,17.998L459.726,291.172L290.341,460.557ZM114.032,129.133C117.163,132.159 122.146,132.116 125.226,129.036C128.306,125.956 128.349,120.977 125.323,117.842L109.408,101.926C119.923,96.889 132.536,100.168 139.262,109.689C145.991,119.21 144.872,132.194 136.614,140.424C127.136,149.47 112.219,149.47 102.741,140.424C95.528,133.282 93.668,122.341 98.116,113.218L114.032,129.133Z" style="fill:rgb(83,83,83);fill-rule:nonzero;"/>
        <g transform="matrix(8.46642,-8.46642,8.46642,8.46642,-2738.68,1392.83)">
            <path d="M243.868,114.965L253.367,111.431L243.868,120.287L234.367,111.479L243.868,114.966L243.868,114.965ZM253.367,110.787L243.868,114.297L234.367,110.787L243.868,101.287L253.367,110.787ZM241.717,109.982L243.868,107.792L245.993,109.966C245.993,109.966 250.59,110.094 250.324,109.966C250.059,109.837 243.762,103.397 243.762,103.397L237.322,109.982L241.717,109.982Z" style="fill:rgb(83,83,83);fill-rule:nonzero;"/>
        </g>
    </g>
</svg>
