<?xml version="1.0" encoding="UTF-8" standalone="no"?>
<!DOCTYPE svg PUBLIC "-//W3C//DTD SVG 1.1//EN" "http://www.w3.org/Graphics/SVG/1.1/DTD/svg11.dtd">
<svg width="100%" height="100%" viewBox="0 0 900 210" version="1.1" xmlns="http://www.w3.org/2000/svg" xmlns:xlink="http://www.w3.org/1999/xlink" xml:space="preserve" xmlns:serif="http://www.serif.com/" style="fill-rule:evenodd;clip-rule:evenodd;stroke-linejoin:round;stroke-miterlimit:1.41421;">
    <g transform="matrix(1,0,0,1,-238.633,-7.45072)">
        <g transform="matrix(144,0,0,144,234.322,151.087)">
            <path d="M0.488,-0.259C0.488,-0.177 0.47,-0.111 0.435,-0.063C0.399,-0.014 0.351,0.01 0.29,0.01C0.25,0.01 0.214,0.002 0.183,-0.015C0.151,-0.031 0.127,-0.053 0.109,-0.082L0.109,0.203L0.083,0.203L0.083,-0.528L0.109,-0.528L0.109,-0.434C0.128,-0.468 0.152,-0.493 0.183,-0.511C0.214,-0.529 0.249,-0.538 0.289,-0.538C0.35,-0.538 0.399,-0.514 0.435,-0.467C0.47,-0.42 0.488,-0.353 0.488,-0.268L0.488,-0.259ZM0.461,-0.27C0.461,-0.345 0.446,-0.405 0.416,-0.448C0.386,-0.49 0.343,-0.512 0.289,-0.512C0.245,-0.512 0.207,-0.5 0.176,-0.477C0.145,-0.454 0.123,-0.421 0.109,-0.378L0.109,-0.131C0.123,-0.095 0.145,-0.067 0.177,-0.047C0.208,-0.027 0.245,-0.017 0.29,-0.017C0.344,-0.017 0.386,-0.038 0.416,-0.081C0.446,-0.124 0.461,-0.187 0.461,-0.27Z" style="fill:rgb(23,23,23);fill-rule:nonzero;"/>
        </g>
        <g transform="matrix(144,0,0,144,313.142,151.087)">
            <path d="M0.044,-0.274C0.044,-0.325 0.054,-0.37 0.073,-0.41C0.092,-0.451 0.12,-0.482 0.155,-0.504C0.19,-0.527 0.23,-0.538 0.275,-0.538C0.319,-0.538 0.359,-0.527 0.394,-0.505C0.429,-0.484 0.457,-0.453 0.476,-0.413C0.496,-0.373 0.506,-0.327 0.506,-0.277L0.506,-0.254C0.506,-0.203 0.497,-0.158 0.478,-0.118C0.458,-0.078 0.431,-0.046 0.396,-0.024C0.36,-0.001 0.32,0.01 0.276,0.01C0.231,0.01 0.191,-0.001 0.156,-0.023C0.121,-0.046 0.093,-0.077 0.074,-0.116C0.054,-0.156 0.044,-0.201 0.044,-0.251L0.044,-0.274ZM0.07,-0.254C0.07,-0.21 0.079,-0.17 0.096,-0.133C0.114,-0.096 0.138,-0.068 0.169,-0.047C0.2,-0.027 0.236,-0.017 0.276,-0.017C0.336,-0.017 0.385,-0.039 0.423,-0.084C0.461,-0.13 0.48,-0.188 0.48,-0.259L0.48,-0.274C0.48,-0.318 0.471,-0.358 0.454,-0.395C0.436,-0.431 0.412,-0.46 0.381,-0.481C0.35,-0.501 0.314,-0.512 0.275,-0.512C0.215,-0.512 0.166,-0.489 0.127,-0.443C0.089,-0.397 0.07,-0.339 0.07,-0.27L0.07,-0.254Z" style="fill:rgb(23,23,23);fill-rule:nonzero;"/>
        </g>
        <g transform="matrix(144,0,0,144,392.384,151.087)">
            <path d="M0.179,-0.153L0.208,-0.039L0.362,-0.528L0.389,-0.528L0.543,-0.039L0.573,-0.153L0.68,-0.528L0.711,-0.528L0.557,0L0.531,0L0.4,-0.397L0.375,-0.492L0.349,-0.397L0.22,0L0.194,0L0.041,-0.528L0.071,-0.528L0.179,-0.153Z" style="fill:rgb(23,23,23);fill-rule:nonzero;"/>
        </g>
        <g transform="matrix(144,0,0,144,501.368,151.087)">
            <path d="M0.274,0.01C0.231,0.01 0.192,-0.002 0.156,-0.025C0.121,-0.048 0.093,-0.079 0.073,-0.119C0.053,-0.159 0.042,-0.204 0.042,-0.252L0.042,-0.274C0.042,-0.323 0.052,-0.368 0.072,-0.409C0.091,-0.449 0.118,-0.481 0.152,-0.504C0.187,-0.527 0.224,-0.538 0.264,-0.538C0.323,-0.538 0.371,-0.517 0.409,-0.475C0.446,-0.433 0.465,-0.378 0.465,-0.31L0.465,-0.282L0.069,-0.282L0.069,-0.253C0.069,-0.21 0.078,-0.17 0.096,-0.134C0.114,-0.097 0.139,-0.068 0.171,-0.047C0.202,-0.027 0.237,-0.016 0.274,-0.016C0.309,-0.016 0.34,-0.022 0.365,-0.034C0.389,-0.046 0.411,-0.064 0.431,-0.089L0.449,-0.076C0.41,-0.019 0.351,0.01 0.274,0.01ZM0.264,-0.512C0.213,-0.512 0.169,-0.493 0.133,-0.454C0.097,-0.416 0.076,-0.367 0.07,-0.308L0.438,-0.308L0.438,-0.314C0.438,-0.35 0.431,-0.384 0.416,-0.414C0.401,-0.445 0.38,-0.469 0.353,-0.486C0.327,-0.503 0.297,-0.512 0.264,-0.512Z" style="fill:rgb(23,23,23);fill-rule:nonzero;"/>
        </g>
        <g transform="matrix(144,0,0,144,573.931,151.087)">
            <path d="M0.317,-0.509L0.283,-0.512C0.238,-0.512 0.2,-0.498 0.17,-0.469C0.14,-0.439 0.12,-0.399 0.11,-0.346L0.11,0L0.084,0L0.084,-0.528L0.11,-0.528L0.11,-0.418C0.125,-0.455 0.146,-0.484 0.175,-0.506C0.203,-0.527 0.239,-0.538 0.283,-0.538C0.298,-0.538 0.31,-0.536 0.32,-0.533L0.317,-0.509Z" style="fill:rgb(23,23,23);fill-rule:nonzero;"/>
        </g>
        <g transform="matrix(144,0,0,144,620.759,151.087)">
            <path d="M0.274,0.01C0.231,0.01 0.192,-0.002 0.156,-0.025C0.121,-0.048 0.093,-0.079 0.073,-0.119C0.053,-0.159 0.042,-0.204 0.042,-0.252L0.042,-0.274C0.042,-0.323 0.052,-0.368 0.072,-0.409C0.091,-0.449 0.118,-0.481 0.152,-0.504C0.187,-0.527 0.224,-0.538 0.264,-0.538C0.323,-0.538 0.371,-0.517 0.409,-0.475C0.446,-0.433 0.465,-0.378 0.465,-0.31L0.465,-0.282L0.069,-0.282L0.069,-0.253C0.069,-0.21 0.078,-0.17 0.096,-0.134C0.114,-0.097 0.139,-0.068 0.171,-0.047C0.202,-0.027 0.237,-0.016 0.274,-0.016C0.309,-0.016 0.34,-0.022 0.365,-0.034C0.389,-0.046 0.411,-0.064 0.431,-0.089L0.449,-0.076C0.41,-0.019 0.351,0.01 0.274,0.01ZM0.264,-0.512C0.213,-0.512 0.169,-0.493 0.133,-0.454C0.097,-0.416 0.076,-0.367 0.07,-0.308L0.438,-0.308L0.438,-0.314C0.438,-0.35 0.431,-0.384 0.416,-0.414C0.401,-0.445 0.38,-0.469 0.353,-0.486C0.327,-0.503 0.297,-0.512 0.264,-0.512Z" style="fill:rgb(23,23,23);fill-rule:nonzero;"/>
        </g>
        <g transform="matrix(144,0,0,144,693.322,151.087)">
            <path d="M0.06,-0.27C0.06,-0.354 0.077,-0.42 0.113,-0.467C0.148,-0.514 0.197,-0.538 0.259,-0.538C0.299,-0.538 0.334,-0.529 0.364,-0.511C0.394,-0.493 0.419,-0.467 0.438,-0.431L0.438,-0.75L0.464,-0.75L0.464,0L0.438,0L0.438,-0.084C0.42,-0.055 0.396,-0.031 0.364,-0.015C0.333,0.002 0.298,0.01 0.258,0.01C0.197,0.01 0.148,-0.014 0.113,-0.063C0.077,-0.111 0.06,-0.178 0.06,-0.263L0.06,-0.27ZM0.087,-0.259C0.087,-0.184 0.102,-0.125 0.131,-0.082C0.161,-0.038 0.203,-0.017 0.257,-0.017C0.301,-0.017 0.338,-0.026 0.369,-0.046C0.4,-0.065 0.423,-0.093 0.438,-0.131L0.438,-0.378C0.408,-0.467 0.348,-0.512 0.258,-0.512C0.204,-0.512 0.162,-0.49 0.132,-0.448C0.102,-0.405 0.087,-0.342 0.087,-0.259Z" style="fill:rgb(23,23,23);fill-rule:nonzero;"/>
        </g>
        <g transform="matrix(144,0,0,144,806.595,151.087)">
            <path d="M0.488,-0.259C0.488,-0.177 0.47,-0.111 0.435,-0.063C0.399,-0.014 0.351,0.01 0.29,0.01C0.25,0.01 0.214,0.002 0.183,-0.015C0.152,-0.031 0.127,-0.054 0.109,-0.083L0.109,0L0.083,0L0.083,-0.75L0.109,-0.75L0.109,-0.432C0.128,-0.467 0.152,-0.493 0.183,-0.511C0.213,-0.529 0.249,-0.538 0.289,-0.538C0.35,-0.538 0.399,-0.514 0.435,-0.467C0.47,-0.42 0.488,-0.353 0.488,-0.268L0.488,-0.259ZM0.46,-0.27C0.46,-0.345 0.445,-0.405 0.415,-0.448C0.385,-0.49 0.343,-0.512 0.289,-0.512C0.245,-0.512 0.207,-0.5 0.177,-0.478C0.146,-0.455 0.123,-0.421 0.109,-0.376L0.109,-0.134C0.123,-0.096 0.146,-0.067 0.177,-0.047C0.207,-0.027 0.245,-0.017 0.29,-0.017C0.344,-0.017 0.386,-0.038 0.416,-0.082C0.446,-0.125 0.46,-0.188 0.46,-0.27Z" style="fill:rgb(23,23,23);fill-rule:nonzero;"/>
        </g>
        <g transform="matrix(144,0,0,144,884.642,151.087)">
            <path d="M0.246,-0.041L0.249,-0.051L0.432,-0.528L0.461,-0.528L0.225,0.092L0.213,0.121C0.188,0.183 0.146,0.213 0.087,0.213C0.068,0.213 0.055,0.212 0.048,0.208L0.047,0.183C0.058,0.186 0.07,0.188 0.083,0.188C0.111,0.188 0.134,0.179 0.152,0.163C0.17,0.147 0.186,0.121 0.199,0.084L0.231,-0.003L0.021,-0.528L0.05,-0.528L0.246,-0.041Z" style="fill:rgb(23,23,23);fill-rule:nonzero;"/>
        </g>
    </g>
    <g transform="matrix(0.479724,0,0,0.479724,769.55,5)">
        <path d="M127.961,0L125.166,9.5L125.166,285.168L127.961,287.958L255.923,212.32L127.961,0Z" style="fill:rgb(23,23,23);fill-rule:nonzero;"/>
        <path d="M127.962,0L0,212.32L127.962,287.959L127.962,154.158L127.962,0Z" style="fill:rgb(23,23,23);fill-rule:nonzero;"/>
        <path d="M127.961,312.187L126.386,314.107L126.386,412.306L127.961,416.907L255.999,236.587L127.961,312.187Z" style="fill:rgb(23,23,23);fill-rule:nonzero;"/>
        <path d="M127.962,416.905L127.962,312.185L0,236.585L127.962,416.905Z" style="fill:rgb(23,23,23);fill-rule:nonzero;"/>
        <path d="M127.961,287.958L255.921,212.321L127.961,154.159L127.961,287.958Z" style="fill:rgb(23,23,23);fill-rule:nonzero;"/>
        <path d="M0.001,212.321L127.961,287.958L127.961,154.159L0.001,212.321Z" style="fill:rgb(23,23,23);fill-rule:nonzero;"/>
    </g>
</svg>
