<?xml version="1.0" encoding="UTF-8" standalone="no"?>
<!DOCTYPE svg PUBLIC "-//W3C//DTD SVG 1.1//EN" "http://www.w3.org/Graphics/SVG/1.1/DTD/svg11.dtd">
<svg width="100%" height="100%" viewBox="0 0 300 300" version="1.1" xmlns="http://www.w3.org/2000/svg" xmlns:xlink="http://www.w3.org/1999/xlink" xml:space="preserve" xmlns:serif="http://www.serif.com/" style="fill-rule:evenodd;clip-rule:evenodd;stroke-linejoin:round;stroke-miterlimit:2;">
    <g transform="matrix(5.17466,0,0,5.18003,4.44089e-15,2.91843)">
        <g>
            <rect x="1" y="2" width="56" height="14" style="fill:rgb(72,83,109);"/>
            <path d="M49,8L55,2L57,2L57,16L55,16L49,8" style="fill:rgb(109,124,160);fill-rule:nonzero;"/>
            <path d="M49,8L49,16L55,16L49,8Z" style="fill:rgb(61,70,91);fill-rule:nonzero;"/>
            <path d="M9,8L3,2L1,2L1,16L3,16L9,8" style="fill:rgb(109,124,160);fill-rule:nonzero;"/>
            <path d="M9,8L9,16L3,16L9,8Z" style="fill:rgb(61,70,91);fill-rule:nonzero;"/>
        </g>
        <g transform="matrix(0.0987947,0,0,0.0986924,1.47365,-1.08933)">
            <g>
                <path d="M415.981,35.884L371.846,5.329C363.011,15.002 348.172,16.902 337.102,9.238L115.946,328.678C127.016,336.342 130.461,350.9 124.517,362.574L168.651,393.129C177.486,383.456 192.325,381.556 203.395,389.22C214.465,396.884 217.91,411.442 211.966,423.116L256.1,453.671C264.935,443.998 279.774,442.098 290.844,449.762L512,130.321C500.93,122.657 497.485,108.099 503.429,96.425L459.295,65.87C450.46,75.543 435.621,77.443 424.551,69.779C413.482,62.116 410.037,47.557 415.981,35.884Z" style="fill:rgb(134,151,203);fill-rule:nonzero;"/>
                <g transform="matrix(-0.5692,0.8222,-0.8222,-0.5692,674.513,157.633)">
                    <rect x="163.338" y="179.547" width="265.243" height="151.957" style="fill:rgb(61,70,91);"/>
                </g>
                <g>
                    <path d="M319.075,74.214C317.38,74.214 315.669,73.717 314.171,72.679L299.981,62.855C296.062,60.142 295.085,54.766 297.798,50.848C300.511,46.929 305.888,45.952 309.805,48.665L323.995,58.489C327.914,61.202 328.891,66.578 326.178,70.496C324.502,72.916 321.811,74.214 319.075,74.214Z" style="fill:rgb(61,70,91);fill-rule:nonzero;"/>
                    <path d="M436.29,155.365C434.595,155.365 432.884,154.867 431.386,153.83L402.082,133.542C398.163,130.829 397.186,125.453 399.899,121.536C402.612,117.617 407.988,116.64 411.906,119.353L441.21,139.641C445.129,142.354 446.106,147.73 443.393,151.647C441.717,154.066 439.026,155.365 436.29,155.365ZM377.683,114.789C375.988,114.789 374.277,114.291 372.779,113.254L343.475,92.966C339.556,90.253 338.579,84.877 341.292,80.96C344.005,77.041 349.382,76.064 353.299,78.777L382.603,99.065C386.522,101.778 387.499,107.154 384.786,111.072C383.11,113.491 380.419,114.789 377.683,114.789Z" style="fill:rgb(61,70,91);fill-rule:nonzero;"/>
                    <path d="M479.783,185.477C478.088,185.477 476.377,184.979 474.879,183.942L460.689,174.118C456.77,171.405 455.793,166.029 458.506,162.111C461.219,158.192 466.596,157.215 470.513,159.928L484.703,169.752C488.622,172.465 489.599,177.841 486.886,181.759C485.211,184.178 482.519,185.477 479.783,185.477Z" style="fill:rgb(61,70,91);fill-rule:nonzero;"/>
                </g>
            </g>
            <g transform="matrix(1,0,0,1,23.4728,-37.1653)">
                <path d="M246.757,447.205L330.432,90.62L304.282,84.484L306.504,61.391L301.766,60.28L115.946,328.678C127.016,336.342 130.461,350.9 124.517,362.574L168.652,393.129C177.486,383.456 192.326,381.556 203.396,389.22C214.466,396.884 217.911,411.442 211.967,423.116L246.757,447.205Z" style="fill-opacity:0.1;fill-rule:nonzero;"/>
                <path d="M171.916,59.353L119.657,47.09C114.98,59.326 101.868,66.531 88.761,63.455L0,441.707C13.107,444.783 21.647,457.067 20.393,470.108L72.652,482.371C77.329,470.135 90.441,462.93 103.548,466.006C116.655,469.082 125.195,481.366 123.941,494.407L176.2,506.67C180.877,494.434 193.989,487.229 207.096,490.305L295.855,112.054C282.748,108.979 274.208,96.694 275.462,83.653L223.204,71.39C218.527,83.626 205.415,90.831 192.308,87.755C179.2,84.677 170.662,72.394 171.916,59.353Z" style="fill:rgb(134,151,203);fill-rule:nonzero;"/>
                <g>
                    <path d="M92.641,131.118C91.989,131.118 91.325,131.043 90.662,130.888L73.86,126.945C69.22,125.857 66.341,121.213 67.431,116.573C68.519,111.934 73.163,109.054 77.803,110.144L94.605,114.087C99.245,115.175 102.124,119.819 101.034,124.459C100.103,128.434 96.556,131.118 92.641,131.118Z" style="fill:rgb(61,70,91);fill-rule:nonzero;"/>
                    <path d="M231.436,163.686C230.784,163.686 230.121,163.611 229.457,163.456L194.758,155.313C190.118,154.225 187.239,149.581 188.329,144.941C189.417,140.302 194.058,137.422 198.701,138.512L233.4,146.655C238.04,147.743 240.919,152.387 239.829,157.027C238.898,161.003 235.352,163.686 231.436,163.686ZM162.039,147.402C161.387,147.402 160.724,147.327 160.06,147.172L125.361,139.029C120.721,137.941 117.842,133.297 118.932,128.657C120.02,124.017 124.662,121.138 129.304,122.228L164.003,130.371C168.643,131.459 171.522,136.103 170.432,140.743C169.5,144.719 165.955,147.402 162.039,147.402Z" style="fill:rgb(61,70,91);fill-rule:nonzero;"/>
                    <path d="M282.937,175.772C282.285,175.772 281.621,175.697 280.958,175.542L264.156,171.599C259.516,170.511 256.637,165.867 257.727,161.227C258.815,156.588 263.46,153.708 268.099,154.798L284.901,158.741C289.541,159.829 292.42,164.473 291.33,169.113C290.398,173.089 286.853,175.772 282.937,175.772Z" style="fill:rgb(61,70,91);fill-rule:nonzero;"/>
                    <g transform="matrix(-0.2285,0.9735,-0.9735,-0.2285,472.448,241.019)">
                        <rect x="8.095" y="231.729" width="265.257" height="151.965" style="fill:rgb(61,70,91);"/>
                    </g>
                </g>
            </g>
        </g>
        <g>
            <path d="M54.258,56L3.742,56C1.675,56 0,54.325 0,52.258L0,16L58,16L58,52.258C58,54.325 56.325,56 54.258,56Z" style="fill:rgb(85,96,128);fill-rule:nonzero;"/>
            <g>
                <circle cx="17" cy="24" r="3" style="fill:rgb(61,70,91);"/>
                <circle cx="41" cy="24" r="3" style="fill:rgb(61,70,91);"/>
            </g>
            <g transform="matrix(1.2069,0,0,1.2069,-7.092,-7.53221)">
                <g transform="matrix(0.0136329,-0.039403,0.0394439,0.0136188,21.7447,46.4999)">
                    <path d="M262.248,43.39L10.769,296.943C2.204,305.508 2.204,319.401 10.769,327.975L188.373,505.578C196.938,514.143 210.831,514.143 219.405,505.578L464.271,254.091L464.271,43.39L262.248,43.39ZM377.492,164.881C358.322,164.881 342.78,149.339 342.78,130.169C342.78,111 358.322,95.458 377.492,95.458C396.661,95.458 412.203,111 412.203,130.169C412.203,149.339 396.661,164.881 377.492,164.881Z" style="fill:rgb(61,70,91);fill-rule:nonzero;"/>
                    <path d="M377.492,60.746C339.152,60.746 308.068,91.83 308.068,130.169C308.068,168.509 339.152,199.593 377.492,199.593C415.831,199.593 446.915,168.509 446.915,130.169C446.915,91.83 415.831,60.746 377.492,60.746ZM377.492,164.881C358.322,164.881 342.78,149.339 342.78,130.169C342.78,111 358.322,95.458 377.492,95.458C396.661,95.458 412.203,111 412.203,130.169C412.203,149.339 396.661,164.881 377.492,164.881Z" style="fill:rgb(134,151,203);fill-rule:nonzero;"/>
                    <path d="M377.492,138.847C375.27,138.847 373.048,137.997 371.356,136.305C367.963,132.912 367.963,127.427 371.356,124.034L492.848,2.543C496.241,-0.85 501.725,-0.85 505.118,2.543C508.511,5.936 508.511,11.42 505.118,14.813L383.627,136.305C381.935,137.997 379.713,138.847 377.492,138.847Z" style="fill:rgb(109,124,160);fill-rule:nonzero;"/>
                    <g transform="matrix(0.360441,0.35873,-0.370825,0.372594,246.744,176.11)">
                        <g>
                            <g transform="matrix(1,-5.55112e-17,-5.55112e-17,1,-122,-41.5467)">
                                <path d="M249.962,41.548L377.924,253.867L249.962,329.504L249.962,329.506L122,253.867L249.961,41.55L249.962,41.547L249.962,41.547L249.962,41.547L249.962,41.548Z" style="fill:rgb(134,151,203);fill-rule:nonzero;"/>
                            </g>
                            <g transform="matrix(1,-5.55112e-17,-5.55112e-17,1,-122,-41.5467)">
                                <path d="M249.96,458.448L122,278.132L249.962,353.732L249.962,353.733L378,278.133L249.962,458.453L249.96,458.448Z" style="fill:rgb(134,151,203);fill-rule:nonzero;"/>
                            </g>
                        </g>
                        <g transform="matrix(1,0,0,1,-122,-41.5467)">
                            <path d="M122.001,253.867L249.961,329.505L249.961,195.706L122.001,253.867ZM249.962,329.504L377.922,253.867L249.962,195.705L249.962,329.504Z" style="fill:rgb(109,124,160);fill-rule:nonzero;"/>
                        </g>
                        <g transform="matrix(1,0,0,1,-122,-41.5467)">
                            <path d="M250,458.399L250,353.711L378,278.133L250,458.399ZM377.924,253.867L250,329.482L250,41.61L377.924,253.867Z" style="fill-opacity:0.4;fill-rule:nonzero;"/>
                        </g>
                    </g>
                </g>
                <g transform="matrix(0.0386129,-0.0186444,0.0186638,0.0385729,9.40197,35.977)">
                    <path d="M262.248,43.39L10.769,296.943C2.204,305.508 2.204,319.401 10.769,327.975L188.373,505.578C196.938,514.143 210.831,514.143 219.405,505.578L464.271,254.091L464.271,43.39L262.248,43.39ZM377.492,164.881C358.322,164.881 342.78,149.339 342.78,130.169C342.78,111 358.322,95.458 377.492,95.458C396.661,95.458 412.203,111 412.203,130.169C412.203,149.339 396.661,164.881 377.492,164.881Z" style="fill:rgb(61,70,91);fill-rule:nonzero;"/>
                    <path d="M377.492,60.746C339.152,60.746 308.068,91.83 308.068,130.169C308.068,168.509 339.152,199.593 377.492,199.593C415.831,199.593 446.915,168.509 446.915,130.169C446.915,91.83 415.831,60.746 377.492,60.746ZM377.492,164.881C358.322,164.881 342.78,149.339 342.78,130.169C342.78,111 358.322,95.458 377.492,95.458C396.661,95.458 412.203,111 412.203,130.169C412.203,149.339 396.661,164.881 377.492,164.881Z" style="fill:rgb(134,151,203);fill-rule:nonzero;"/>
                    <path d="M377.492,138.847C375.27,138.847 373.048,137.997 371.356,136.305C367.963,132.912 367.963,127.427 371.356,124.034L492.848,2.543C496.241,-0.85 501.725,-0.85 505.118,2.543C508.511,5.936 508.511,11.42 505.118,14.813L383.627,136.305C381.935,137.997 379.713,138.847 377.492,138.847Z" style="fill:rgb(109,124,160);fill-rule:nonzero;"/>
                    <g transform="matrix(5.18572,5.16111,-5.16111,5.18572,214.808,134.002)">
                        <g transform="matrix(0.015913,0,0,0.015913,-3.8913,-3.57788)">
                            <path d="M1250.01,287.709L2191.85,1229.55L1250.01,2171.39L308.165,1229.55L1250.01,287.709ZM635.246,1168.03L1065.57,1168.03L1250,963.115L1454.92,1168.03L1885.25,1168.03L1250,481.577L635.246,1168.03Z" style="fill:rgb(109,124,160);fill-rule:nonzero;"/>
                        </g>
                        <g transform="matrix(0.015913,0,0,0.015913,-3.8913,-3.57788)">
                            <path d="M1250,1536.88L307.377,1229.51L1250,287.681L2192.62,1229.51L1250,1536.88ZM635.246,1168.03L1065.57,1168.03L1250,963.115L1454.92,1168.03L1885.25,1168.03L1250,481.577L635.246,1168.03Z" style="fill:rgb(134,151,203);fill-rule:nonzero;"/>
                        </g>
                        <g transform="matrix(0.015913,0,0,0.015913,-3.8913,-3.57788)">
                            <path d="M1250,481.577L1250,287.681L2191.83,1229.51L1250,2171.34L1250,963.115L1454.92,1168.03L1885.25,1168.03L1250,481.577Z" style="fill-opacity:0.4;"/>
                        </g>
                    </g>
                </g>
            </g>
            <path d="M29,43C21.832,43 16,37.168 16,30L16,24C16,23.447 16.448,23 17,23C17.552,23 18,23.447 18,24L18,30C18,36.065 22.935,41 29,41C35.065,41 40,36.065 40,30L40,24C40,23.447 40.448,23 41,23C41.552,23 42,23.447 42,24L42,30C42,37.168 36.168,43 29,43Z" style="fill:rgb(134,151,203);fill-rule:nonzero;"/>
        </g>
    </g>
</svg>
