<?xml version="1.0" encoding="UTF-8" standalone="no"?>
<!DOCTYPE svg PUBLIC "-//W3C//DTD SVG 1.1//EN" "http://www.w3.org/Graphics/SVG/1.1/DTD/svg11.dtd">
<svg width="100%" height="100%" viewBox="0 0 100 100" version="1.1" xmlns="http://www.w3.org/2000/svg" xmlns:xlink="http://www.w3.org/1999/xlink" xml:space="preserve" xmlns:serif="http://www.serif.com/" style="fill-rule:evenodd;clip-rule:evenodd;stroke-linejoin:round;stroke-miterlimit:1.41421;">
    <path d="M61.85,76.062C67.076,76.062 71.301,80.286 71.301,85.513C71.301,90.74 67.076,94.964 61.85,94.964C56.623,94.964 52.399,90.74 52.399,85.513L52.399,76.062L61.85,76.062ZM28.699,61.885C28.699,56.659 32.924,52.434 38.15,52.434C43.377,52.434 47.601,56.659 47.601,61.885L47.601,85.513C47.601,90.74 43.377,94.964 38.15,94.964C32.924,94.964 28.699,90.74 28.699,85.513L28.699,61.885ZM23.974,61.885C23.974,67.112 19.749,71.337 14.523,71.337C9.296,71.337 5.072,67.112 5.072,61.885C5.072,56.659 9.296,52.434 14.523,52.434L23.974,52.434L23.974,61.885ZM85.549,71.337L61.85,71.337C56.623,71.337 52.399,67.112 52.399,61.885C52.399,56.659 56.623,52.434 61.85,52.434L85.549,52.434C90.776,52.434 95,56.659 95,61.885C95,67.112 90.776,71.336 85.549,71.337ZM85.477,47.637L76.026,47.637L76.026,38.186C76.026,32.959 80.251,28.735 85.477,28.735C90.704,28.735 94.928,32.959 94.928,38.186C94.928,43.413 90.704,47.637 85.477,47.637ZM71.301,38.186C71.301,43.413 67.076,47.637 61.85,47.637C56.623,47.637 52.399,43.413 52.399,38.186L52.399,14.487C52.399,9.26 56.623,5.036 61.85,5.036C67.076,5.036 71.301,9.26 71.301,14.487L71.301,38.186ZM38.15,47.637L14.451,47.637C9.224,47.637 5,43.413 5,38.186C5,32.959 9.224,28.735 14.451,28.735L38.15,28.735C43.377,28.735 47.601,32.959 47.601,38.186C47.601,43.413 43.377,47.637 38.15,47.637ZM47.601,23.938L38.15,23.938C32.924,23.938 28.699,19.714 28.699,14.487C28.699,9.26 32.924,5.036 38.15,5.036C43.377,5.036 47.601,9.26 47.601,14.487L47.601,23.938Z" style="fill:rgb(23,23,23);fill-rule:nonzero;"/>
</svg>
