<?xml version="1.0" encoding="UTF-8" standalone="no"?>
<!DOCTYPE svg PUBLIC "-//W3C//DTD SVG 1.1//EN" "http://www.w3.org/Graphics/SVG/1.1/DTD/svg11.dtd">
<svg width="100%" height="100%" viewBox="0 0 300 300" version="1.1" xmlns="http://www.w3.org/2000/svg" xmlns:xlink="http://www.w3.org/1999/xlink" xml:space="preserve" xmlns:serif="http://www.serif.com/" style="fill-rule:evenodd;clip-rule:evenodd;stroke-linejoin:round;stroke-miterlimit:2;">
    <g transform="matrix(1.5893,-2.22045e-16,1.11022e-16,1.62688,-69.6024,-80.486)">
        <g>
            <g>
                <g transform="matrix(0.636849,8.79756e-17,-4.39878e-17,0.622136,41.7865,23.8932)">
                    <path d="M51.281,94.961L72.566,94.961C74.299,94.961 75.706,96.402 75.706,98.176C75.706,99.95 74.299,101.391 72.566,101.391L51.347,101.391C51.439,100.436 51.485,99.469 51.485,98.49C51.485,97.296 51.416,96.119 51.281,94.961Z" style="fill:rgb(109,124,160);"/>
                </g>
                <g transform="matrix(0.884703,2.12221e-18,1.14056e-18,0.91265,-0.869954,-19.917)">
                    <ellipse cx="87.182" cy="114.967" rx="4.267" ry="4.041" style="fill:rgb(109,124,160);"/>
                </g>
                <g transform="matrix(0.90926,0,0,0.90926,12.3265,13.5612)">
                    <path d="M111.36,166.586C111.081,167.23 110.927,167.94 110.927,168.686C110.927,169.509 111.115,170.29 111.451,170.986L83.2,171C81.986,171 81,170.014 81,168.8C81,167.586 81.986,166.6 83.2,166.6L111.36,166.586ZM121.094,166.586L158.899,166.6C158.644,167.221 158.503,167.9 158.503,168.613C158.503,169.471 158.708,170.282 159.071,171L121.002,170.986C121.338,170.29 121.527,169.509 121.527,168.686C121.527,167.94 121.372,167.23 121.094,166.586Z" style="fill:rgb(109,124,160);"/>
                </g>
                <g transform="matrix(1,0,0,1,-22.7315,-27.9018)">
                    <path d="M195.93,129C195.654,129.617 195.5,130.301 195.5,131.02C195.5,131.723 195.647,132.393 195.913,133L183.969,133C182.865,133 181.969,132.104 181.969,131C181.969,129.896 182.865,129 183.969,129L195.93,129ZM205.07,129L214.963,129C216.066,129 216.963,129.896 216.963,131C216.963,132.104 216.066,133 214.963,133L205.087,133C205.353,132.393 205.5,131.723 205.5,131.02C205.5,130.301 205.346,129.617 205.07,129Z" style="fill:rgb(109,124,160);"/>
                </g>
                <g transform="matrix(0.636849,8.79756e-17,-4.39878e-17,0.622136,41.7865,70.4396)">
                    <path d="M248.388,201.047C248.259,202.177 248.193,203.326 248.193,204.49C248.193,205.498 248.243,206.495 248.339,207.477L236.242,207.477C234.509,207.477 233.102,206.036 233.102,204.262C233.102,202.488 234.509,201.047 236.242,201.047L248.388,201.047Z" style="fill:rgb(109,124,160);"/>
                </g>
                <g transform="matrix(0.884703,2.12221e-18,1.14056e-18,0.91265,122.455,92.5679)">
                    <ellipse cx="87.182" cy="114.967" rx="4.267" ry="4.041" style="fill:rgb(109,124,160);"/>
                </g>
                <g transform="matrix(2.783e-16,2.34694,-0.909593,1.51048e-17,181.683,2.24285)">
                    <path d="M71.053,102.994C71.053,101.781 70.68,100.796 70.22,100.796L35.215,100.796C34.756,100.796 34.383,101.781 34.383,102.994C34.383,104.208 34.756,105.193 35.215,105.193L70.22,105.193C70.68,105.193 71.053,104.208 71.053,102.994Z" style="fill:rgb(109,124,160);"/>
                </g>
                <g transform="matrix(1,-1.12491e-16,-5.75755e-17,1.8242,-22.7315,-133.903)">
                    <path d="M182,162.46L181.944,130.184C181.944,129.08 182.896,128.95 184,128.95C185.104,128.95 186,129.846 186,130.95L186,162.464C185.386,162.196 184.708,162.048 183.995,162.048C183.286,162.048 182.611,162.195 182,162.46Z" style="fill:rgb(109,124,160);"/>
                </g>
                <g transform="matrix(3.5204e-16,2.68167,-0.909593,-9.67815e-19,285.952,8.97043)">
                    <path d="M71.053,102.994C71.053,101.781 70.726,100.796 70.324,100.796L35.112,100.796C34.709,100.796 34.383,101.781 34.383,102.994C34.383,104.208 34.709,105.193 35.112,105.193L70.324,105.193C70.726,105.193 71.053,104.208 71.053,102.994Z" style="fill:rgb(109,124,160);"/>
                </g>
                <g transform="matrix(0.0390625,0,0,0.0390625,107.744,142.653)">
                    <g transform="matrix(17.9975,0,0,18.8982,-1307.95,-1549.81)">
                        <ellipse cx="87.182" cy="114.967" rx="4.267" ry="4.041" style="fill:rgb(134,151,203);"/>
                    </g>
                    <g transform="matrix(1.31734,-2.46519e-32,0,1.31734,-81.0171,-147.462)">
                        <g transform="matrix(1.43291,0,7.76379e-32,1.43291,-105.225,-224.16)">
                            <path d="M510.301,249.124C507.747,244.27 502.714,241.23 497.229,241.23L481.989,241.23C478.475,186.299 455.402,135.139 416.13,95.867C373.359,53.095 316.489,29.539 256,29.539C195.511,29.539 138.64,53.095 95.869,95.868C66.981,124.756 46.455,160.735 36.511,199.921C34.751,206.856 38.214,214.054 44.732,217.007C51.249,219.961 58.945,217.816 62.998,211.921L68.924,203.301L85.583,227.531C88.898,232.353 94.749,234.761 100.497,233.676C106.246,232.589 110.813,228.209 112.139,222.51C127.786,155.269 186.943,108.307 256,108.307C332.452,108.307 395.523,166.702 402.959,241.229L388.922,241.229C383.439,241.229 378.405,244.269 375.852,249.123C373.299,253.977 373.645,259.847 376.753,264.366L430.906,343.135C433.661,347.142 438.213,349.537 443.077,349.537C447.941,349.537 452.493,347.142 455.248,343.135L509.402,264.366C512.508,259.848 512.854,253.978 510.301,249.124Z" style="fill:rgb(134,151,203);fill-rule:nonzero;"/>
                        </g>
                        <g transform="matrix(1.43291,0,7.76379e-32,1.43291,-105.225,-224.16)">
                            <path d="M455.246,343.136C452.491,347.143 447.939,349.538 443.075,349.538C438.211,349.538 433.659,347.143 430.904,343.136L398.28,295.682C380.536,359.595 322.916,403.69 255.999,403.69C223.447,403.69 193.321,393.104 168.883,375.193C135.924,351.038 113.309,313.563 109.04,270.768L123.077,270.768C128.56,270.768 133.594,267.729 136.147,262.874C138.7,258.019 138.354,252.15 135.246,247.631L81.093,168.862C78.339,164.855 73.787,162.46 68.923,162.46C64.059,162.46 59.507,164.855 56.752,168.862L2.599,247.633C-0.508,252.152 -0.855,258.023 1.698,262.876C4.251,267.729 9.285,270.77 14.77,270.77L30.01,270.77C33.524,325.701 56.597,376.861 95.869,416.133C138.641,458.906 195.51,482.462 256,482.462C290.734,482.462 324.275,474.695 354.638,459.983C377.152,449.073 397.92,434.345 416.131,416.133C444.375,387.889 464.618,352.865 474.801,314.695L455.246,343.136Z" style="fill:rgb(85,96,128);fill-rule:nonzero;"/>
                        </g>
                        <g transform="matrix(8.56771,0,4.64215e-31,8.56771,124.206,3.62682)">
                            <g transform="matrix(0.015913,0,0,0.015913,-3.8913,-3.57788)">
                                <path d="M1250.01,287.709L2191.85,1229.55L1250.01,2171.39L308.165,1229.55L1250.01,287.709ZM635.246,1168.03L1065.57,1168.03L1250,963.115L1454.92,1168.03L1885.25,1168.03L1250,481.577L635.246,1168.03Z" style="fill:rgb(109,124,160);fill-rule:nonzero;"/>
                            </g>
                            <g transform="matrix(0.015913,0,0,0.015913,-3.8913,-3.57788)">
                                <path d="M1250,1536.88L307.377,1229.51L1250,287.681L2192.62,1229.51L1250,1536.88ZM635.246,1168.03L1065.57,1168.03L1250,963.115L1454.92,1168.03L1885.25,1168.03L1250,481.577L635.246,1168.03Z" style="fill:rgb(134,151,203);fill-rule:nonzero;"/>
                            </g>
                            <g transform="matrix(0.015913,0,0,0.015913,-3.8913,-3.57788)">
                                <path d="M1250,481.577L1250,287.681L2191.83,1229.51L1250,2171.34L1250,963.115L1454.92,1168.03L1885.25,1168.03L1250,481.577Z" style="fill-opacity:0.4;"/>
                            </g>
                        </g>
                    </g>
                </g>
                <g transform="matrix(0.0390625,0,0,0.0390625,151.268,171.653)">
                    <g transform="matrix(17.9975,0,0,18.8982,-1313.07,-2292.21)">
                        <ellipse cx="87.182" cy="114.967" rx="4.267" ry="4.041" style="fill:rgb(134,151,203);"/>
                    </g>
                    <g transform="matrix(1.31734,0,0,1.31734,-86.2228,-12.5803)">
                        <g transform="matrix(1.43291,0,8.29739e-32,1.43291,-106.169,-6.18086)">
                            <path d="M510.301,249.124C507.747,244.27 502.714,241.23 497.229,241.23L481.989,241.23C478.475,186.299 455.402,135.139 416.13,95.867C373.359,53.095 316.489,29.539 256,29.539C195.511,29.539 138.64,53.095 95.869,95.868C66.981,124.756 46.455,160.735 36.511,199.921C34.751,206.856 38.214,214.054 44.732,217.007C51.249,219.961 58.945,217.816 62.998,211.921L68.924,203.301L85.583,227.531C88.898,232.353 94.749,234.761 100.497,233.676C106.246,232.589 110.813,228.209 112.139,222.51C127.786,155.269 186.943,108.307 256,108.307C332.452,108.307 395.523,166.702 402.959,241.229L388.922,241.229C383.439,241.229 378.405,244.269 375.852,249.123C373.299,253.977 373.645,259.847 376.753,264.366L430.906,343.135C433.661,347.142 438.213,349.537 443.077,349.537C447.941,349.537 452.493,347.142 455.248,343.135L509.402,264.366C512.508,259.848 512.854,253.978 510.301,249.124Z" style="fill:rgb(134,151,203);fill-rule:nonzero;"/>
                        </g>
                        <g transform="matrix(1.43291,0,8.29739e-32,1.43291,-106.169,-6.18086)">
                            <path d="M455.246,343.136C452.491,347.143 447.939,349.538 443.075,349.538C438.211,349.538 433.659,347.143 430.904,343.136L398.28,295.682C380.536,359.595 322.916,403.69 255.999,403.69C223.447,403.69 193.321,393.104 168.883,375.193C135.924,351.038 113.309,313.563 109.04,270.768L123.077,270.768C128.56,270.768 133.594,267.729 136.147,262.874C138.7,258.019 138.354,252.15 135.246,247.631L81.093,168.862C78.339,164.855 73.787,162.46 68.923,162.46C64.059,162.46 59.507,164.855 56.752,168.862L2.599,247.633C-0.508,252.152 -0.855,258.023 1.698,262.876C4.251,267.729 9.285,270.77 14.77,270.77L30.01,270.77C33.524,325.701 56.597,376.861 95.869,416.133C138.641,458.906 195.51,482.462 256,482.462C290.734,482.462 324.275,474.695 354.638,459.983C377.152,449.073 397.92,434.345 416.131,416.133C444.375,387.889 464.618,352.865 474.801,314.695L455.246,343.136Z" style="fill:rgb(85,96,128);fill-rule:nonzero;"/>
                        </g>
                        <g transform="matrix(0.802429,0,4.64654e-32,0.802429,52.6819,156.95)">
                            <path d="M271.25,416L240.937,416L240.937,379.969C201.281,375.907 176.749,352.844 167.281,310.844L214.156,298.625C218.5,325.031 232.875,338.219 257.281,338.219C268.687,338.219 277.125,335.407 282.5,329.75C287.875,324.093 290.562,317.281 290.562,309.281C290.562,301 287.874,294.718 282.5,290.468C277.125,286.188 265.156,280.78 246.625,274.218C229.969,268.438 216.937,262.749 207.562,257.063C198.187,251.438 190.562,243.532 184.718,233.375C178.874,223.187 175.937,211.312 175.937,197.812C175.937,180.093 181.187,164.124 191.625,149.937C202.063,135.781 218.5,127.124 240.938,123.968L240.938,96L271.251,96L271.251,123.969C305.126,128.032 327.064,147.188 337.032,181.469L295.282,198.594C287.126,175.094 274.562,163.344 257.501,163.344C248.938,163.344 242.063,165.969 236.907,171.219C231.719,176.469 229.126,182.844 229.126,190.313C229.126,197.938 231.626,203.782 236.626,207.876C241.595,211.939 252.314,216.97 268.689,223.001C286.689,229.564 300.814,235.782 311.033,241.626C321.281,247.469 329.438,255.563 335.562,265.844C341.657,276.157 344.718,288.188 344.718,301.969C344.718,323.125 338.406,340.75 325.812,354.844C313.218,368.969 295.032,377.282 271.25,379.782L271.25,416Z" style="fill:rgb(109,124,160);fill-rule:nonzero;"/>
                        </g>
                    </g>
                </g>
                <g transform="matrix(0.0390625,0,0,0.0390625,167.568,78.7511)">
                    <g>
                        <g transform="matrix(1.88762,8.89607e-32,-7.40797e-32,1.88762,-218.979,-441.547)">
                            <path d="M510.301,249.124C507.747,244.27 502.714,241.23 497.229,241.23L481.989,241.23C478.475,186.299 455.402,135.139 416.13,95.867C373.359,53.095 316.489,29.539 256,29.539C195.511,29.539 138.64,53.095 95.869,95.868C66.981,124.756 46.455,160.735 36.511,199.921C34.751,206.856 38.214,214.054 44.732,217.007C51.249,219.961 58.945,217.816 62.998,211.921L68.924,203.301L85.583,227.531C88.898,232.353 94.749,234.761 100.497,233.676C106.246,232.589 110.813,228.209 112.139,222.51C127.786,155.269 186.943,108.307 256,108.307C332.452,108.307 395.523,166.702 402.959,241.229L388.922,241.229C383.439,241.229 378.405,244.269 375.852,249.123C373.299,253.977 373.645,259.847 376.753,264.366L430.906,343.135C433.661,347.142 438.213,349.537 443.077,349.537C447.941,349.537 452.493,347.142 455.248,343.135L509.402,264.366C512.508,259.848 512.854,253.978 510.301,249.124Z" style="fill:rgb(134,151,203);fill-rule:nonzero;"/>
                        </g>
                        <g transform="matrix(1.88762,8.89607e-32,-7.40797e-32,1.88762,-218.979,-441.547)">
                            <path d="M455.246,343.136C452.491,347.143 447.939,349.538 443.075,349.538C438.211,349.538 433.659,347.143 430.904,343.136L398.28,295.682C380.536,359.595 322.916,403.69 255.999,403.69C223.447,403.69 193.321,393.104 168.883,375.193C135.924,351.038 113.309,313.563 109.04,270.768L123.077,270.768C128.56,270.768 133.594,267.729 136.147,262.874C138.7,258.019 138.354,252.15 135.246,247.631L81.093,168.862C78.339,164.855 73.787,162.46 68.923,162.46C64.059,162.46 59.507,164.855 56.752,168.862L2.599,247.633C-0.508,252.152 -0.855,258.023 1.698,262.876C4.251,267.729 9.285,270.77 14.77,270.77L30.01,270.77C33.524,325.701 56.597,376.861 95.869,416.133C138.641,458.906 195.51,482.462 256,482.462C290.734,482.462 324.275,474.695 354.638,459.983C377.152,449.073 397.92,434.345 416.131,416.133C444.375,387.889 464.618,352.865 474.801,314.695L455.246,343.136Z" style="fill:rgb(85,96,128);fill-rule:nonzero;"/>
                        </g>
                        <g transform="matrix(0.811362,2.47213e-17,2.43526e-16,0.811362,156.978,-125.616)">
                            <g>
                                <g transform="matrix(1,0,0,1,-122,-41.5467)">
                                    <path d="M249.962,41.548L377.924,253.867L249.962,329.504L249.962,329.506L122,253.867L249.961,41.55L249.962,41.547L249.962,41.547L249.962,41.547L249.962,41.548Z" style="fill:rgb(134,151,203);fill-rule:nonzero;"/>
                                </g>
                                <g transform="matrix(1,0,0,1,-122,-41.5467)">
                                    <path d="M249.96,458.448L122,278.132L249.962,353.732L249.962,353.733L378,278.133L249.962,458.453L249.96,458.448Z" style="fill:rgb(134,151,203);fill-rule:nonzero;"/>
                                </g>
                            </g>
                            <g transform="matrix(1,0,0,1,-122,-41.5467)">
                                <path d="M122.001,253.867L249.961,329.505L249.961,195.706L122.001,253.867ZM249.962,329.504L377.922,253.867L249.962,195.705L249.962,329.504Z" style="fill:rgb(109,124,160);fill-rule:nonzero;"/>
                            </g>
                            <g transform="matrix(1,0,0,1,-122,-41.5467)">
                                <path d="M250,458.399L250,353.711L378,278.133L250,458.399ZM377.924,253.867L250,329.482L250,41.61L377.924,253.867Z" style="fill-opacity:0.4;fill-rule:nonzero;"/>
                            </g>
                        </g>
                    </g>
                    <g transform="matrix(17.9975,0,0,18.8982,-1307.95,-1549.81)">
                        <ellipse cx="87.182" cy="114.967" rx="4.267" ry="4.041" style="fill:rgb(134,151,203);"/>
                    </g>
                </g>
            </g>
            <g transform="matrix(0.055973,-9.62965e-34,2.94849e-17,0.0588401,203.925,182.339)">
                <path d="M512,198.527L342.43,162.737L256,12.532L256,428.747L414.213,499.468L395.848,327.139L512,198.527Z" style="fill:rgb(109,124,160);fill-rule:nonzero;"/>
                <path d="M169.57,162.737L0,198.527L116.152,327.139L97.787,499.468L256,428.747L256,12.532L169.57,162.737Z" style="fill:rgb(134,151,203);fill-rule:nonzero;"/>
            </g>
            <g transform="matrix(0.055973,2.39982e-33,-1.0009e-34,0.055973,43.7944,65.199)">
                <path d="M459.845,299.477L485.185,324.903C495.165,334.839 495.434,350.911 485.792,361.177L364.301,490.305L17.356,490.305C7.784,490.279 0.026,482.521 0,472.949L0,221.288C0.026,211.716 7.784,203.958 17.356,203.932L364.301,203.932L459.845,299.477ZM434.94,324.383C424.769,314.221 408.281,314.23 398.119,324.409C387.957,334.58 387.966,351.068 398.145,361.23C408.316,371.392 424.804,371.383 434.966,361.204C439.843,356.318 442.585,349.688 442.577,342.781C442.576,335.872 439.825,329.26 434.94,324.383ZM346.251,392.852L346.251,378.707L305.465,378.707L305.465,346.859L343.735,346.859L343.735,332.974L305.465,332.974L305.465,305.291L346.251,305.291L346.251,291.233L288.803,291.233L288.803,392.852L346.251,392.852ZM271.36,392.852L271.36,378.62L228.317,378.62L228.317,291.233L211.742,291.233L211.742,392.852L271.36,392.852ZM198.292,392.852L160.283,290.886L142.233,290.886L104.224,392.852L121.753,392.852L131.733,364.649L170.524,364.649L180.677,392.852L198.292,392.852ZM97.974,365.256C98.087,361.134 97.254,357.038 95.544,353.28C93.765,349.67 91.153,346.546 87.907,344.168C82.813,340.619 77.311,337.703 71.506,335.49C66.759,333.685 62.169,331.481 57.795,328.895C55.573,327.593 53.699,325.78 52.328,323.601C51.148,321.544 50.549,319.201 50.592,316.832C50.471,313.257 52.015,309.838 54.757,307.547C58.298,304.987 62.637,303.755 66.993,304.076C75.35,304.371 83.577,306.289 91.205,309.717L96.499,296.179C87.361,292.048 77.46,289.896 67.428,289.844C58.759,289.384 50.194,291.961 43.216,297.133C37.176,301.949 33.818,309.378 34.191,317.092C34.035,323.349 36.022,329.475 39.832,334.448C45.169,340.332 51.92,344.757 59.444,347.291C65.814,349.487 71.819,352.654 77.234,356.663C80.02,359.128 81.599,362.668 81.573,366.382C81.703,370.296 79.959,374.027 76.887,376.448C72.583,379.286 67.445,380.596 62.308,380.18C57.388,380.145 52.493,379.503 47.729,378.271C42.644,377.091 37.697,375.373 32.976,373.151L32.976,388.858C41.854,392.746 51.495,394.585 61.179,394.238C70.812,394.767 80.349,392.051 88.254,386.515C94.737,381.414 98.356,373.5 97.974,365.256Z" style="fill:rgb(85,96,128);fill-rule:nonzero;"/>
                <g transform="matrix(12.4982,1.72653e-15,-7.85875e-16,11.1149,-38.0427,-850.353)">
                    <ellipse cx="36.685" cy="107.178" rx="2.731" ry="3.01" style="fill:rgb(85,96,128);"/>
                </g>
                <g>
                    <path d="M346.251,378.707L346.251,392.852L288.803,392.852L288.803,291.233L346.251,291.233L346.251,305.291L305.464,305.291L305.464,332.974L343.734,332.974L343.734,346.859L305.464,346.859L305.464,378.707L346.251,378.707Z" style="fill:rgb(134,151,203);fill-rule:nonzero;"/>
                    <path d="M271.36,378.62L271.36,392.852L211.742,392.852L211.742,291.233L228.317,291.233L228.317,378.62L271.36,378.62Z" style="fill:rgb(134,151,203);fill-rule:nonzero;"/>
                    <path d="M160.282,290.886L198.291,392.852L180.675,392.852L170.522,364.649L131.731,364.649L121.751,392.852L104.222,392.852L142.231,290.886L160.282,290.886ZM166.183,350.33L156.637,322.647C155.943,320.825 154.988,317.874 153.773,313.882C152.558,309.89 151.69,307.026 151.256,305.117C149.781,311.469 147.932,317.735 145.702,323.861L136.59,350.329L166.183,350.33Z" style="fill:rgb(134,151,203);fill-rule:nonzero;"/>
                    <path d="M156.637,322.647L166.183,350.33L136.591,350.33L145.703,323.862C147.933,317.735 149.782,311.47 151.257,305.118C151.691,307.027 152.559,309.891 153.774,313.883C154.988,317.874 155.943,320.825 156.637,322.647Z" style="fill:rgb(85,96,128);fill-rule:nonzero;"/>
                </g>
                <path d="M95.544,353.28C97.254,357.038 98.087,361.134 97.974,365.256C98.356,373.5 94.737,381.414 88.255,386.517C80.349,392.054 70.812,394.77 61.18,394.24C51.495,394.587 41.854,392.747 32.977,388.86L32.977,373.153C37.698,375.375 42.644,377.093 47.73,378.273C52.494,379.505 57.389,380.147 62.309,380.182C67.446,380.599 72.584,379.288 76.888,376.45C79.96,374.029 81.704,370.297 81.574,366.384C81.6,362.67 80.021,359.129 77.235,356.665C71.82,352.656 65.815,349.488 59.445,347.293C51.921,344.759 45.17,340.333 39.833,334.45C36.023,329.478 34.036,323.351 34.192,317.094C33.819,309.379 37.177,301.951 43.217,297.135C50.194,291.963 58.759,289.386 67.429,289.846C77.461,289.898 87.362,292.05 96.5,296.181L91.206,309.719C83.578,306.291 75.351,304.373 66.994,304.078C62.638,303.757 58.299,304.989 54.758,307.549C52.016,309.84 50.471,313.259 50.593,316.834C50.55,319.203 51.148,321.546 52.329,323.603C53.7,325.781 55.575,327.595 57.796,328.897C62.17,331.483 66.76,333.687 71.507,335.492C77.313,337.705 82.814,340.621 87.908,344.17C91.153,346.546 93.765,349.67 95.544,353.28Z" style="fill:rgb(134,151,203);fill-rule:nonzero;"/>
                <g>
                    <rect x="34.712" y="238.644" width="312.407" height="17.356" style="fill:rgb(134,151,203);"/>
                    <rect x="34.712" y="438.238" width="312.407" height="17.356" style="fill:rgb(134,151,203);"/>
                </g>
            </g>
        </g>
    </g>
</svg>
