<?xml version="1.0" encoding="UTF-8" standalone="no"?>
<!DOCTYPE svg PUBLIC "-//W3C//DTD SVG 1.1//EN" "http://www.w3.org/Graphics/SVG/1.1/DTD/svg11.dtd">
<svg width="100%" height="100%" viewBox="0 0 500 300" version="1.1" xmlns="http://www.w3.org/2000/svg" xmlns:xlink="http://www.w3.org/1999/xlink" xml:space="preserve" xmlns:serif="http://www.serif.com/" style="fill-rule:evenodd;clip-rule:evenodd;stroke-linejoin:round;stroke-miterlimit:1.41421;">
    <g transform="matrix(0.974556,0,0,0.914834,7.21512,10.1783)">
        <path d="M505.65,-3.474C505.65,-7.7 502.435,-11.126 498.468,-11.126C441.042,-11.126 57.205,-11.126 -0.221,-11.126C-4.188,-11.126 -7.403,-7.7 -7.403,-3.474C-7.403,40.902 -7.403,264.775 -7.403,309.151C-7.403,313.377 -4.188,316.803 -0.221,316.803C57.205,316.803 441.042,316.803 498.468,316.803C502.435,316.803 505.65,313.377 505.65,309.151C505.65,264.775 505.65,40.902 505.65,-3.474Z" style="fill:rgb(23,23,23);"/>
    </g>
    <g transform="matrix(0.871761,0,0,0.871761,-30.7642,-1.38957)">
        <path d="M314.989,89.715C312.178,91.863 309.516,94.197 307.021,96.698L280.76,96.666L280.74,112.95L273.748,112.941L273.768,96.657L157.133,96.513L157.105,119.33C163.567,119.906 167.993,122.253 173.379,127.652C186.05,140.355 186.026,159.487 173.324,172.158C167.924,177.544 163.493,179.88 157.032,180.439L157.001,203.258L273.636,203.402L273.656,187.117L280.648,187.126L280.628,203.41L303.455,203.438C305.618,205.914 307.932,208.253 310.385,210.439L150,210.241L150.045,173.578L153.541,173.583C160.089,173.591 163.419,172.161 168.385,167.207C178.426,157.191 178.444,142.632 168.427,132.591C163.474,127.625 160.147,126.187 153.6,126.179L150.104,126.175L150.149,89.512L314.989,89.715ZM273.666,177.23L273.69,157.449L280.683,157.458L280.658,177.238L273.666,177.23ZM273.709,142.614L273.733,122.834L280.725,122.842L280.701,142.623L273.709,142.614Z" style="fill:rgb(38,38,38);fill-rule:nonzero;"/>
    </g>
    <g transform="matrix(1.35451,0,0,1.35451,238.286,60.7616)">
        <path d="M50.309,48.577C54.652,43.867 57.46,37.719 57.923,30.924L32.656,30.924L50.309,48.577Z" style="fill:rgb(38,38,38);fill-rule:nonzero;"/>
        <g transform="matrix(0.6436,0,0,0.6436,-152.252,-30.6575)">
            <path d="M284.73,55.809C289.772,54.734 295.004,54.168 300.368,54.168C302.076,54.168 303.77,54.225 305.449,54.338C317.366,61.779 325.551,74.636 326.563,89.468L284.73,89.468L284.73,55.809Z" style="fill:rgb(38,38,38);fill-rule:nonzero;"/>
        </g>
        <g transform="matrix(0.6436,0,0,0.6436,-152.252,-30.6575)">
            <path d="M278.514,57.419L278.514,95.683L310.213,127.381C302.436,133.783 292.483,137.634 281.622,137.634C256.737,137.634 236.563,117.46 236.563,92.575C236.563,91.73 236.586,90.891 236.632,90.058C245.976,74.606 260.845,62.823 278.514,57.419Z" style="fill:rgb(83,83,83);fill-rule:nonzero;"/>
        </g>
    </g>
    <g transform="matrix(1.30764,0,0,1.30764,212.403,58.8694)">
        <g transform="matrix(0.666667,0,0,0.666667,-137.915,-30.3092)">
            <path d="M305.164,201.736C303.579,201.837 301.979,201.888 300.368,201.888C298.87,201.888 297.382,201.844 295.906,201.756L295.906,179.453L305.164,179.453L305.164,201.736ZM288.728,200.985C285.572,200.491 282.482,199.798 279.471,198.922L279.471,168.77L288.728,168.77L288.728,200.985ZM321.6,198.824C318.589,199.716 315.498,200.423 312.341,200.932L312.341,161.647L321.6,161.647L321.6,198.824ZM338.035,191.696C335.074,193.431 331.982,194.969 328.777,196.289L328.777,166.989L338.035,166.989L338.035,191.696ZM354.471,178.637C351.624,181.643 348.527,184.411 345.213,186.909L345.213,150.965L354.471,150.965L354.471,178.637Z" style="fill:rgb(38,38,38);fill-rule:nonzero;"/>
        </g>
        <g transform="matrix(1,0,0,1,-246.711,-74.7788)">
            <path d="M339.348,136.768C339.087,136.315 338.938,135.79 338.938,135.229C338.938,133.525 340.319,132.143 342.024,132.143C343.728,132.143 345.11,133.525 345.11,135.229C345.11,136.934 343.728,138.316 342.024,138.316C341.435,138.316 340.884,138.15 340.416,137.864L333.742,144.373C334.003,144.826 334.153,145.352 334.153,145.912C334.153,147.617 332.771,148.998 331.067,148.998C329.362,148.998 327.981,147.617 327.981,145.912C327.981,145.846 327.983,145.781 327.987,145.716L322.716,144.004C322.169,144.865 321.206,145.437 320.11,145.437C319.579,145.437 319.08,145.303 318.644,145.068L311.743,152.543C312.057,153.026 312.239,153.603 312.239,154.221C312.239,155.926 310.857,157.307 309.153,157.307C307.448,157.307 306.067,155.926 306.067,154.221C306.067,153.875 306.124,153.543 306.229,153.232L300.286,149.37C299.736,149.876 299.002,150.185 298.196,150.185C296.492,150.185 295.11,148.804 295.11,147.099C295.11,145.395 296.492,144.013 298.196,144.013C299.9,144.013 301.282,145.395 301.282,147.099C301.282,147.445 301.225,147.777 301.12,148.087L307.064,151.95C307.614,151.444 308.347,151.135 309.153,151.135C309.683,151.135 310.183,151.269 310.619,151.505L317.519,144.029C317.206,143.546 317.024,142.97 317.024,142.351C317.024,140.647 318.405,139.265 320.11,139.265C321.814,139.265 323.196,140.647 323.196,142.351C323.196,142.418 323.194,142.483 323.19,142.548L328.46,144.26C329.007,143.398 329.97,142.826 331.067,142.826C331.655,142.826 332.206,142.991 332.674,143.277L339.348,136.768Z" style="fill:rgb(83,83,83);fill-rule:nonzero;"/>
        </g>
    </g>
    <g transform="matrix(3.2512,-5.8071e-16,-1.9357e-16,3.2512,225.648,62.8239)">
        <path d="M53.627,49.385L37.795,33.553C40.423,30.046 42,25.709 42,21C42,9.42 32.58,0 21,0C9.42,0 0,9.42 0,21C0,32.58 9.42,42 21,42C25.709,42 30.046,40.423 33.553,37.795L49.385,53.627L53.627,49.385ZM2,21C2,10.523 10.523,2 21,2C31.477,2 40,10.523 40,21C40,31.477 31.477,40 21,40C10.523,40 2,31.477 2,21ZM35.567,36.093C35.745,35.921 35.92,35.746 36.092,35.568C36.238,35.417 36.396,35.278 36.537,35.123L50.799,49.385L49.384,50.8L35.123,36.537C35.278,36.396 35.416,36.238 35.567,36.093Z" style="fill:rgb(38,38,38);fill-rule:nonzero;"/>
    </g>
</svg>
