<?xml version="1.0" encoding="UTF-8" standalone="no"?>
<!DOCTYPE svg PUBLIC "-//W3C//DTD SVG 1.1//EN" "http://www.w3.org/Graphics/SVG/1.1/DTD/svg11.dtd">
<svg width="100%" height="100%" viewBox="0 0 500 300" version="1.1" xmlns="http://www.w3.org/2000/svg" xmlns:xlink="http://www.w3.org/1999/xlink" xml:space="preserve" xmlns:serif="http://www.serif.com/" style="fill-rule:evenodd;clip-rule:evenodd;stroke-linejoin:round;stroke-miterlimit:1.41421;">
    <g transform="matrix(0.974556,0,0,0.914834,7.21512,10.1783)">
        <path d="M505.65,-3.474C505.65,-7.7 502.435,-11.126 498.468,-11.126C441.042,-11.126 57.205,-11.126 -0.221,-11.126C-4.188,-11.126 -7.403,-7.7 -7.403,-3.474C-7.403,40.902 -7.403,264.775 -7.403,309.151C-7.403,313.377 -4.188,316.803 -0.221,316.803C57.205,316.803 441.042,316.803 498.468,316.803C502.435,316.803 505.65,313.377 505.65,309.151C505.65,264.775 505.65,40.902 505.65,-3.474Z" style="fill:rgb(23,23,23);"/>
    </g>
    <g transform="matrix(0.276599,0,0,0.276599,147.06,101.901)">
        <path d="M322.871,468.023C313.215,468.023 313.215,482.992 322.871,482.992L394.73,482.992C397.957,482.992 400.82,480.922 401.836,477.859L439.777,363.137L452.355,363.137C462.012,363.137 462.012,348.168 452.355,348.168L434.371,348.168C431.141,348.168 428.277,350.238 427.262,353.301L419.113,377.945L292.191,377.945C286.922,377.945 283.195,383.637 285.355,388.477L313.621,451.875C314.824,454.574 317.5,456.312 320.457,456.312L393.195,456.312L389.32,468.023L322.871,468.023ZM303.727,392.914L413.793,392.914L398.094,441.34L325.316,441.34L303.727,392.914Z" style="fill:rgb(83,83,83);fill-rule:nonzero;"/>
    </g>
    <g transform="matrix(0.708093,0,0,0.708093,100.781,73.1028)">
        <path d="M298.296,249.822L123.531,249.822C121.917,249.822 120.608,248.513 120.608,246.897L120.608,146.325C114.945,143.326 111.124,137.728 111.124,131.327L111.124,125.664C111.083,125.593 111.039,125.524 111.004,125.448C110.526,124.413 110.691,123.195 111.428,122.327L121.877,110.021C121.888,110.008 121.899,109.996 121.909,109.984L124.565,106.856L124.565,106.857L127.619,103.26L127.619,103.26L130.386,100.002L130.386,100.002L131.378,98.834C131.409,98.794 131.441,98.754 131.475,98.714L135.282,94.231C135.316,94.191 135.351,94.153 135.386,94.115L136.165,93.2L137.473,93.2C137.486,93.2 137.498,93.2 137.511,93.2L176.037,93.2L176.037,85.402L159.077,85.402C157.462,85.402 156.153,84.093 156.153,82.477L156.153,52.848C156.153,51.233 157.462,49.924 159.077,49.924L262.782,49.924C264.396,49.924 265.705,51.233 265.705,52.848L265.705,57.722C265.705,57.731 265.705,57.741 265.705,57.751L265.705,73.287C265.705,73.297 265.705,73.306 265.705,73.316L265.705,82.477C265.705,84.093 264.396,85.402 262.782,85.402L245.821,85.402L245.821,93.2L284.347,93.2C284.362,93.2 284.376,93.2 284.391,93.2L285.72,93.2L286.483,94.127C286.526,94.172 286.567,94.219 286.607,94.268L309.019,121.56C310.03,122.019 310.734,123.037 310.734,124.219L310.734,131.327C310.734,137.739 306.901,143.345 301.22,146.34L301.22,215.616L301.22,215.638L301.22,231.58L301.22,231.602L301.22,246.897C301.22,248.513 299.912,249.822 298.296,249.822ZM214.325,161.292L207.395,161.292L207.395,161.292L126.456,161.292L126.456,243.973L207.395,243.973L207.395,243.976L214.325,243.976L214.325,243.973L226.715,243.973L226.715,243.973L274.182,243.973L274.182,243.973L295.373,243.973L295.373,231.602C295.373,231.576 295.373,231.55 295.374,231.525L295.374,215.693C295.373,215.668 295.373,215.642 295.373,215.616L295.373,161.292L214.325,161.292L214.325,161.292ZM295.373,155.443L295.373,148.334C294.212,148.539 293.012,148.65 291.787,148.65C284.949,148.65 278.947,145.321 275.614,140.343C272.282,145.321 266.28,148.65 259.443,148.65C252.605,148.65 246.604,145.321 243.272,140.343C239.939,145.321 233.938,148.65 227.1,148.65C220.263,148.65 214.262,145.321 210.929,140.343C207.597,145.321 201.595,148.65 194.758,148.65C187.92,148.65 181.919,145.321 178.587,140.343C175.254,145.321 169.251,148.65 162.415,148.65C155.578,148.65 149.575,145.321 146.242,140.343C142.91,145.321 136.909,148.65 130.071,148.65C128.835,148.65 127.628,148.537 126.456,148.33L126.456,155.443L295.373,155.443ZM291.787,142.801C284.563,142.801 278.687,137.653 278.687,131.327L278.687,127.143L304.887,127.143L304.887,131.327C304.887,137.653 299.009,142.801 291.787,142.801ZM149.316,127.143L175.513,127.143L175.513,131.327C175.513,137.653 169.637,142.801 162.414,142.801C155.19,142.801 149.316,137.653 149.316,131.327L149.316,127.143ZM181.658,127.143L207.857,127.143L207.857,131.327C207.857,137.653 201.981,142.801 194.758,142.801C187.534,142.801 181.658,137.653 181.658,131.327L181.658,127.143ZM214.001,127.143L240.2,127.143L240.2,131.327C240.2,137.653 234.324,142.801 227.1,142.801C219.877,142.801 214.001,137.653 214.001,131.327L214.001,127.143ZM246.343,127.143L272.543,127.143L272.543,131.327C272.543,137.653 266.666,142.801 259.443,142.801C252.219,142.801 246.343,137.653 246.343,131.327L246.343,127.143ZM116.972,131.327L116.972,127.143L143.171,127.143L143.171,131.327C143.171,137.653 137.295,142.801 130.071,142.801C122.848,142.801 116.972,137.653 116.972,131.327ZM282.964,99.047L138.865,99.047L137.037,101.199L137.04,101.201L133.366,105.528L133.365,105.528L131.138,108.152L131.137,108.152L128.37,111.411L128.37,111.41L125.316,115.007L125.316,115.007L119.976,121.296L301.235,121.296L282.964,99.047ZM239.974,85.402L181.884,85.402L181.884,93.2L239.974,93.2L239.974,85.402ZM259.856,55.773L162.002,55.773L162.002,79.554L259.856,79.554L259.856,73.316C259.856,73.305 259.856,73.295 259.857,73.284L259.857,57.753C259.856,57.743 259.856,57.732 259.856,57.722L259.856,55.773Z" style="fill:rgb(38,38,38);fill-rule:nonzero;"/>
    </g>
    <g transform="matrix(0.0628424,0,0,0.0628424,241.956,59.9306)">
        <g transform="matrix(1,0,0,1,-122,-41.5467)">
            <path d="M249.962,41.548L377.924,253.867L249.962,329.504L249.962,329.506L122,253.867L249.961,41.55L249.962,41.547L249.962,41.547L249.962,41.547L249.962,41.548Z" style="fill:rgb(83,83,83);fill-rule:nonzero;"/>
        </g>
        <g transform="matrix(1,0,0,1,-122,-41.5467)">
            <path d="M249.96,458.448L122,278.132L249.962,353.732L249.962,353.733L378,278.133L249.962,458.453L249.96,458.448Z" style="fill:rgb(83,83,83);fill-rule:nonzero;"/>
        </g>
        <g transform="matrix(1,0,0,1,-122,-41.5467)">
            <path d="M122.001,253.867L249.961,329.505L249.961,195.706L122.001,253.867ZM249.962,329.504L377.922,253.867L249.962,195.705L249.962,329.504Z" style="fill:rgb(68,68,68);fill-rule:nonzero;"/>
        </g>
        <g transform="matrix(1,0,0,1,-122,-41.5467)">
            <path d="M250,458.399L250,353.711L378,278.133L250,458.399ZM377.924,253.867L250,329.482L250,41.61L377.924,253.867Z" style="fill-opacity:0.4;fill-rule:nonzero;"/>
        </g>
    </g>
    <g transform="matrix(0.23013,0,0,0.23013,190.646,40.3709)">
        <path d="M257.914,41.842C313.106,41.842 357.914,86.65 357.914,141.842C357.914,197.033 313.106,241.842 257.914,241.842C202.723,241.842 157.914,197.033 157.914,141.842C157.914,86.65 202.723,41.842 257.914,41.842ZM257.914,51.842C307.586,51.842 347.914,92.169 347.914,141.842C347.914,191.514 307.586,231.842 257.914,231.842C208.242,231.842 167.914,191.514 167.914,141.842C167.914,92.169 208.242,51.842 257.914,51.842Z" style="fill:rgb(38,38,38);"/>
    </g>
    <g transform="matrix(0.875675,0,0,0.875675,335.122,136.92)">
        <g transform="matrix(0.015913,0,0,0.015913,-3.8913,-3.57788)">
            <path d="M1250.01,287.709L2191.85,1229.55L1250.01,2171.39L308.165,1229.55L1250.01,287.709ZM635.246,1168.03L1065.57,1168.03L1250,963.115L1454.92,1168.03L1885.25,1168.03L1250,481.577L635.246,1168.03Z" style="fill:rgb(68,68,68);fill-rule:nonzero;"/>
        </g>
        <g transform="matrix(0.015913,0,0,0.015913,-3.8913,-3.57788)">
            <path d="M1250,1536.88L307.377,1229.51L1250,287.681L2192.62,1229.51L1250,1536.88ZM635.246,1168.03L1065.57,1168.03L1250,963.115L1454.92,1168.03L1885.25,1168.03L1250,481.577L635.246,1168.03Z" style="fill:rgb(83,83,83);fill-rule:nonzero;"/>
        </g>
        <g transform="matrix(0.015913,0,0,0.015913,-3.8913,-3.57788)">
            <path d="M1250,481.577L1250,287.681L2191.83,1229.51L1250,2171.34L1250,963.115L1454.92,1168.03L1885.25,1168.03L1250,481.577Z" style="fill-opacity:0.4;"/>
        </g>
    </g>
    <g transform="matrix(0.23013,0,0,0.23013,289.779,118.261)">
        <path d="M257.914,41.842C313.106,41.842 357.914,86.65 357.914,141.842C357.914,197.033 313.106,241.842 257.914,241.842C202.723,241.842 157.914,197.033 157.914,141.842C157.914,86.65 202.723,41.842 257.914,41.842ZM257.914,51.842C307.586,51.842 347.914,92.169 347.914,141.842C347.914,191.514 307.586,231.842 257.914,231.842C208.242,231.842 167.914,191.514 167.914,141.842C167.914,92.169 208.242,51.842 257.914,51.842Z" style="fill:rgb(38,38,38);"/>
    </g>
    <g transform="matrix(0.875675,0,0,0.875675,172.261,80.273)">
        <g transform="matrix(0.015913,0,0,0.015913,-3.8913,-3.57788)">
            <path d="M1250.01,287.709L2191.85,1229.55L1250.01,2171.39L308.165,1229.55L1250.01,287.709ZM635.246,1168.03L1065.57,1168.03L1250,963.115L1454.92,1168.03L1885.25,1168.03L1250,481.577L635.246,1168.03Z" style="fill:rgb(68,68,68);fill-rule:nonzero;"/>
        </g>
        <g transform="matrix(0.015913,0,0,0.015913,-3.8913,-3.57788)">
            <path d="M1250,1536.88L307.377,1229.51L1250,287.681L2192.62,1229.51L1250,1536.88ZM635.246,1168.03L1065.57,1168.03L1250,963.115L1454.92,1168.03L1885.25,1168.03L1250,481.577L635.246,1168.03Z" style="fill:rgb(83,83,83);fill-rule:nonzero;"/>
        </g>
        <g transform="matrix(0.015913,0,0,0.015913,-3.8913,-3.57788)">
            <path d="M1250,481.577L1250,287.681L2191.83,1229.51L1250,2171.34L1250,963.115L1454.92,1168.03L1885.25,1168.03L1250,481.577Z" style="fill-opacity:0.4;"/>
        </g>
    </g>
    <g transform="matrix(0.23013,0,0,0.23013,126.918,61.6137)">
        <path d="M257.914,41.842C313.106,41.842 357.914,86.65 357.914,141.842C357.914,197.033 313.106,241.842 257.914,241.842C202.723,241.842 157.914,197.033 157.914,141.842C157.914,86.65 202.723,41.842 257.914,41.842ZM257.914,51.842C307.586,51.842 347.914,92.169 347.914,141.842C347.914,191.514 307.586,231.842 257.914,231.842C208.242,231.842 167.914,191.514 167.914,141.842C167.914,92.169 208.242,51.842 257.914,51.842Z" style="fill:rgb(38,38,38);"/>
    </g>
    <g transform="matrix(0.0820945,0,0,0.0820945,129.851,129.904)">
        <path d="M271.25,416L240.937,416L240.937,379.969C201.281,375.907 176.749,352.844 167.281,310.844L214.156,298.625C218.5,325.031 232.875,338.219 257.281,338.219C268.687,338.219 277.125,335.407 282.5,329.75C287.875,324.093 290.562,317.281 290.562,309.281C290.562,301 287.874,294.718 282.5,290.468C277.125,286.188 265.156,280.78 246.625,274.218C229.969,268.438 216.937,262.749 207.562,257.063C198.187,251.438 190.562,243.532 184.718,233.375C178.874,223.187 175.937,211.312 175.937,197.812C175.937,180.093 181.187,164.124 191.625,149.937C202.063,135.781 218.5,127.124 240.938,123.968L240.938,96L271.251,96L271.251,123.969C305.126,128.032 327.064,147.188 337.032,181.469L295.282,198.594C287.126,175.094 274.562,163.344 257.501,163.344C248.938,163.344 242.063,165.969 236.907,171.219C231.719,176.469 229.126,182.844 229.126,190.313C229.126,197.938 231.626,203.782 236.626,207.876C241.595,211.939 252.314,216.97 268.689,223.001C286.689,229.564 300.814,235.782 311.033,241.626C321.281,247.469 329.438,255.563 335.562,265.844C341.657,276.157 344.718,288.188 344.718,301.969C344.718,323.125 338.406,340.75 325.812,354.844C313.218,368.969 295.032,377.282 271.25,379.782L271.25,416Z" style="fill:rgb(83,83,83);fill-rule:nonzero;"/>
    </g>
    <g transform="matrix(0.23013,0,0,0.23013,91.5132,118.261)">
        <path d="M257.914,41.842C313.106,41.842 357.914,86.65 357.914,141.842C357.914,197.033 313.106,241.842 257.914,241.842C202.723,241.842 157.914,197.033 157.914,141.842C157.914,86.65 202.723,41.842 257.914,41.842ZM257.914,51.842C307.586,51.842 347.914,92.169 347.914,141.842C347.914,191.514 307.586,231.842 257.914,231.842C208.242,231.842 167.914,191.514 167.914,141.842C167.914,92.169 208.242,51.842 257.914,51.842Z" style="fill:rgb(38,38,38);"/>
    </g>
    <g transform="matrix(0.0820945,0,0,0.0820945,292.712,73.2569)">
        <path d="M271.25,416L240.937,416L240.937,379.969C201.281,375.907 176.749,352.844 167.281,310.844L214.156,298.625C218.5,325.031 232.875,338.219 257.281,338.219C268.687,338.219 277.125,335.407 282.5,329.75C287.875,324.093 290.562,317.281 290.562,309.281C290.562,301 287.874,294.718 282.5,290.468C277.125,286.188 265.156,280.78 246.625,274.218C229.969,268.438 216.937,262.749 207.562,257.063C198.187,251.438 190.562,243.532 184.718,233.375C178.874,223.187 175.937,211.312 175.937,197.812C175.937,180.093 181.187,164.124 191.625,149.937C202.063,135.781 218.5,127.124 240.938,123.968L240.938,96L271.251,96L271.251,123.969C305.126,128.032 327.064,147.188 337.032,181.469L295.282,198.594C287.126,175.094 274.562,163.344 257.501,163.344C248.938,163.344 242.063,165.969 236.907,171.219C231.719,176.469 229.126,182.844 229.126,190.313C229.126,197.938 231.626,203.782 236.626,207.876C241.595,211.939 252.314,216.97 268.689,223.001C286.689,229.564 300.814,235.782 311.033,241.626C321.281,247.469 329.438,255.563 335.562,265.844C341.657,276.157 344.718,288.188 344.718,301.969C344.718,323.125 338.406,340.75 325.812,354.844C313.218,368.969 295.032,377.282 271.25,379.782L271.25,416Z" style="fill:rgb(83,83,83);fill-rule:nonzero;"/>
    </g>
    <g transform="matrix(0.23013,0,0,0.23013,254.375,61.6137)">
        <path d="M257.914,41.842C313.106,41.842 357.914,86.65 357.914,141.842C357.914,197.033 313.106,241.842 257.914,241.842C202.723,241.842 157.914,197.033 157.914,141.842C157.914,86.65 202.723,41.842 257.914,41.842ZM257.914,51.842C307.586,51.842 347.914,92.169 347.914,141.842C347.914,191.514 307.586,231.842 257.914,231.842C208.242,231.842 167.914,191.514 167.914,141.842C167.914,92.169 208.242,51.842 257.914,51.842Z" style="fill:rgb(38,38,38);"/>
    </g>
</svg>
