<?xml version="1.0" encoding="UTF-8" standalone="no"?>
<!DOCTYPE svg PUBLIC "-//W3C//DTD SVG 1.1//EN" "http://www.w3.org/Graphics/SVG/1.1/DTD/svg11.dtd">
<svg width="100%" height="100%" viewBox="0 0 300 300" version="1.1" xmlns="http://www.w3.org/2000/svg" xmlns:xlink="http://www.w3.org/1999/xlink" xml:space="preserve" xmlns:serif="http://www.serif.com/" style="fill-rule:evenodd;clip-rule:evenodd;stroke-linecap:round;stroke-linejoin:round;stroke-miterlimit:1.5;">
    <g transform="matrix(1.05608,0.00634285,-0.00657494,1.09472,-46.5187,-11.3261)">
        <ellipse cx="187.047" cy="154.82" rx="118.36" ry="114.182" style="fill:none;stroke:rgb(61,70,91);stroke-width:1.86px;stroke-dasharray:0,9.3,7.44,0;"/>
    </g>
    <g transform="matrix(0.354004,0,0,0.354004,57.8125,108.7)">
        <path d="M22.069,97.103L22.069,512L498.759,512L498.759,190.605L498.759,97.103L22.069,97.103Z" style="fill:rgb(85,96,128);fill-rule:nonzero;"/>
        <rect x="39.724" y="256" width="247.172" height="203.034" style="fill:rgb(61,70,91);"/>
        <rect x="57.379" y="273.655" width="211.862" height="167.724" style="fill:rgb(109,124,160);"/>
        <path d="M136.828,97.103L16.578,97.103C14.91,97.103 13.7,95.506 14.159,93.899L50.017,16.004C54.502,6.25 64.256,0 74.999,0L154.483,0L136.828,97.103Z" style="fill:rgb(72,83,109);fill-rule:nonzero;"/>
        <path d="M384,97.103L260.414,97.103L260.414,0L366.345,0L384,97.103Z" style="fill:rgb(72,83,109);fill-rule:nonzero;"/>
        <path d="M198.621,220.69C164.493,220.69 136.828,193.024 136.828,158.897L136.828,97.103L260.414,97.103L260.414,158.897C260.414,193.024 232.748,220.69 198.621,220.69Z" style="fill:rgb(109,124,160);fill-rule:nonzero;"/>
        <path d="M445.793,220.69C411.666,220.69 384,193.024 384,158.897L384,97.103L506.642,97.103C507.162,97.103 507.586,97.527 507.586,98.048L507.586,158.897C507.586,193.024 479.921,220.69 445.793,220.69Z" style="fill:rgb(109,124,160);fill-rule:nonzero;"/>
        <path d="M260.414,97.103L136.828,97.103L154.483,0L260.414,0L260.414,97.103Z" style="fill:rgb(85,96,128);fill-rule:nonzero;"/>
        <path d="M504.452,97.103L384,97.103L366.345,0L445.828,0C456.572,0 466.326,6.25 470.819,16.013L506.73,94.093C507.154,95.603 506.024,97.103 504.452,97.103Z" style="fill:rgb(85,96,128);fill-rule:nonzero;"/>
        <path d="M75.034,220.69C40.907,220.69 13.241,193.024 13.241,158.897L13.241,99.593C13.241,98.216 14.354,97.103 15.731,97.103L136.828,97.103L136.828,158.897C136.828,193.024 109.162,220.69 75.034,220.69Z" style="fill:rgb(61,70,91);fill-rule:nonzero;"/>
        <path d="M322.207,220.69C288.079,220.69 260.414,193.024 260.414,158.897L260.414,97.103L384,97.103L384,158.897C384,193.024 356.334,220.69 322.207,220.69Z" style="fill:rgb(61,70,91);fill-rule:nonzero;"/>
        <rect x="322.207" y="256" width="141.241" height="256" style="fill:rgb(61,70,91);"/>
        <rect x="339.862" y="273.655" width="105.931" height="220.69" style="fill:rgb(109,124,160);"/>
        <path d="M428.138,414.897C423.256,414.897 419.31,410.951 419.31,406.069L419.31,379.586C419.31,374.705 423.256,370.759 428.138,370.759C433.02,370.759 436.966,374.705 436.966,379.586L436.966,406.069C436.966,410.951 433.02,414.897 428.138,414.897Z" style="fill:rgb(134,151,203);fill-rule:nonzero;"/>
        <g>
            <path d="M154.483,335.448C156.743,335.448 159.002,334.583 160.724,332.862L196.034,297.551C199.486,294.1 199.486,288.521 196.034,285.069C192.583,281.618 187.004,281.618 183.552,285.069L148.242,320.38C144.79,323.831 144.79,329.41 148.242,332.862C149.963,334.583 152.223,335.448 154.483,335.448Z" style="fill:rgb(134,151,203);fill-rule:nonzero;"/>
            <path d="M154.483,379.586C156.743,379.586 159.002,378.721 160.724,377L178.379,359.345C181.831,355.893 181.831,350.314 178.379,346.862C174.927,343.411 169.348,343.411 165.897,346.862L148.242,364.518C144.79,367.969 144.79,373.548 148.242,377C149.963,378.721 152.223,379.586 154.483,379.586Z" style="fill:rgb(134,151,203);fill-rule:nonzero;"/>
            <path d="M183.526,329.181C181.928,330.849 180.966,333.153 180.966,335.448C180.966,337.743 181.928,340.039 183.526,341.628C185.194,343.296 187.401,344.276 189.793,344.276C192.088,344.276 194.383,343.305 196.061,341.716C197.65,340.039 198.621,337.743 198.621,335.448C198.621,333.153 197.65,330.849 196.061,329.181C192.794,325.914 186.792,325.914 183.526,329.181Z" style="fill:rgb(134,151,203);fill-rule:nonzero;"/>
            <path d="M201.207,324.034C202.929,325.756 205.188,326.621 207.448,326.621C209.708,326.621 211.968,325.756 213.689,324.034L240.172,297.551C243.624,294.1 243.624,288.521 240.172,285.069C236.721,281.618 231.142,281.618 227.69,285.069L201.207,311.552C197.756,315.004 197.756,320.583 201.207,324.034Z" style="fill:rgb(134,151,203);fill-rule:nonzero;"/>
            <path d="M227.69,329.207L148.242,408.655C144.79,412.107 144.79,417.686 148.242,421.138C149.963,422.859 152.223,423.724 154.483,423.724C156.743,423.724 159.002,422.859 160.724,421.138L240.172,341.689C243.624,338.238 243.624,332.659 240.172,329.207C236.721,325.756 231.142,325.756 227.69,329.207Z" style="fill:rgb(134,151,203);fill-rule:nonzero;"/>
            <path d="M257.854,311.526C254.588,308.259 248.585,308.259 245.319,311.526C243.721,313.194 242.759,315.498 242.759,317.793C242.759,320.088 243.721,322.383 245.319,324.061C246.987,325.65 249.291,326.621 251.586,326.621C253.881,326.621 256.177,325.65 257.854,324.061C259.443,322.383 260.414,320.088 260.414,317.793C260.414,315.498 259.443,313.194 257.854,311.526Z" style="fill:rgb(134,151,203);fill-rule:nonzero;"/>
        </g>
    </g>
    <g transform="matrix(1,0,0,1,-28.2586,-19.2)">
        <g transform="matrix(1.03416,3.69779e-32,6.16298e-32,1.03311,35.1198,42.1231)">
            <ellipse cx="51.417" cy="52.338" rx="24.168" ry="24.192" style="fill:rgb(61,70,91);"/>
        </g>
        <g transform="matrix(1.16762,0,0,1.16762,69.5324,77.5324)">
            <g transform="matrix(0.015913,0,0,0.015913,-3.8913,-3.57788)">
                <path d="M1250.01,287.709L2191.85,1229.55L1250.01,2171.39L308.165,1229.55L1250.01,287.709ZM635.246,1168.03L1065.57,1168.03L1250,963.115L1454.92,1168.03L1885.25,1168.03L1250,481.577L635.246,1168.03Z" style="fill:rgb(109,124,160);fill-rule:nonzero;"/>
            </g>
            <g transform="matrix(0.015913,0,0,0.015913,-3.8913,-3.57788)">
                <path d="M1250,1536.88L307.377,1229.51L1250,287.681L2192.62,1229.51L1250,1536.88ZM635.246,1168.03L1065.57,1168.03L1250,963.115L1454.92,1168.03L1885.25,1168.03L1250,481.577L635.246,1168.03Z" style="fill:rgb(134,151,203);fill-rule:nonzero;"/>
            </g>
            <g transform="matrix(0.015913,0,0,0.015913,-3.8913,-3.57788)">
                <path d="M1250,481.577L1250,287.681L2191.83,1229.51L1250,2171.34L1250,963.115L1454.92,1168.03L1885.25,1168.03L1250,481.577Z" style="fill-opacity:0.4;"/>
            </g>
        </g>
        <g transform="matrix(0.25,0,0,0.25,23.7801,60.7823)">
            <path d="M257.914,41.842C313.106,41.842 357.914,86.65 357.914,141.842C357.914,197.033 313.106,241.842 257.914,241.842C202.723,241.842 157.914,197.033 157.914,141.842C157.914,86.65 202.723,41.842 257.914,41.842ZM257.914,51.842C307.586,51.842 347.914,92.169 347.914,141.842C347.914,191.514 307.586,231.842 257.914,231.842C208.242,231.842 167.914,191.514 167.914,141.842C167.914,92.169 208.242,51.842 257.914,51.842Z" style="fill:rgb(109,124,160);"/>
        </g>
    </g>
    <g transform="matrix(1,0,0,1,-63.2586,62.8)">
        <g transform="matrix(1.03416,3.69779e-32,6.16298e-32,1.03311,35.1198,42.1231)">
            <ellipse cx="51.417" cy="52.338" rx="24.168" ry="24.192" style="fill:rgb(61,70,91);"/>
        </g>
        <g transform="matrix(0.25,0,0,0.25,23.7801,60.7823)">
            <path d="M257.914,41.842C313.106,41.842 357.914,86.65 357.914,141.842C357.914,197.033 313.106,241.842 257.914,241.842C202.723,241.842 157.914,197.033 157.914,141.842C157.914,86.65 202.723,41.842 257.914,41.842ZM257.914,51.842C307.586,51.842 347.914,92.169 347.914,141.842C347.914,191.514 307.586,231.842 257.914,231.842C208.242,231.842 167.914,191.514 167.914,141.842C167.914,92.169 208.242,51.842 257.914,51.842Z" style="fill:rgb(109,124,160);"/>
        </g>
        <g transform="matrix(0.109375,0,0,0.109375,60.2623,68.2)">
            <path d="M271.25,416L240.937,416L240.937,379.969C201.281,375.907 176.749,352.844 167.281,310.844L214.156,298.625C218.5,325.031 232.875,338.219 257.281,338.219C268.687,338.219 277.125,335.407 282.5,329.75C287.875,324.093 290.562,317.281 290.562,309.281C290.562,301 287.874,294.718 282.5,290.468C277.125,286.188 265.156,280.78 246.625,274.218C229.969,268.438 216.937,262.749 207.562,257.063C198.187,251.438 190.562,243.532 184.718,233.375C178.874,223.187 175.937,211.312 175.937,197.812C175.937,180.093 181.187,164.124 191.625,149.937C202.063,135.781 218.5,127.124 240.938,123.968L240.938,96L271.251,96L271.251,123.969C305.126,128.032 327.064,147.188 337.032,181.469L295.282,198.594C287.126,175.094 274.562,163.344 257.501,163.344C248.938,163.344 242.063,165.969 236.907,171.219C231.719,176.469 229.126,182.844 229.126,190.313C229.126,197.938 231.626,203.782 236.626,207.876C241.595,211.939 252.314,216.97 268.689,223.001C286.689,229.564 300.814,235.782 311.033,241.626C321.281,247.469 329.438,255.563 335.562,265.844C341.657,276.157 344.718,288.188 344.718,301.969C344.718,323.125 338.406,340.75 325.812,354.844C313.218,368.969 295.032,377.282 271.25,379.782L271.25,416Z" style="fill:rgb(109,124,160);fill-rule:nonzero;"/>
        </g>
    </g>
    <g transform="matrix(1,0,0,1,151.741,-19.2)">
        <g transform="matrix(1.03416,3.69779e-32,6.16298e-32,1.03311,35.1198,42.1231)">
            <ellipse cx="51.417" cy="52.338" rx="24.168" ry="24.192" style="fill:rgb(61,70,91);"/>
        </g>
        <g transform="matrix(0.25,0,0,0.25,23.7801,60.7823)">
            <path d="M257.914,41.842C313.106,41.842 357.914,86.65 357.914,141.842C357.914,197.033 313.106,241.842 257.914,241.842C202.723,241.842 157.914,197.033 157.914,141.842C157.914,86.65 202.723,41.842 257.914,41.842ZM257.914,51.842C307.586,51.842 347.914,92.169 347.914,141.842C347.914,191.514 307.586,231.842 257.914,231.842C208.242,231.842 167.914,191.514 167.914,141.842C167.914,92.169 208.242,51.842 257.914,51.842Z" style="fill:rgb(109,124,160);"/>
        </g>
        <g transform="matrix(0.109375,0,0,0.109375,60.2623,68.2)">
            <path d="M271.25,416L240.937,416L240.937,379.969C201.281,375.907 176.749,352.844 167.281,310.844L214.156,298.625C218.5,325.031 232.875,338.219 257.281,338.219C268.687,338.219 277.125,335.407 282.5,329.75C287.875,324.093 290.562,317.281 290.562,309.281C290.562,301 287.874,294.718 282.5,290.468C277.125,286.188 265.156,280.78 246.625,274.218C229.969,268.438 216.937,262.749 207.562,257.063C198.187,251.438 190.562,243.532 184.718,233.375C178.874,223.187 175.937,211.312 175.937,197.812C175.937,180.093 181.187,164.124 191.625,149.937C202.063,135.781 218.5,127.124 240.938,123.968L240.938,96L271.251,96L271.251,123.969C305.126,128.032 327.064,147.188 337.032,181.469L295.282,198.594C287.126,175.094 274.562,163.344 257.501,163.344C248.938,163.344 242.063,165.969 236.907,171.219C231.719,176.469 229.126,182.844 229.126,190.313C229.126,197.938 231.626,203.782 236.626,207.876C241.595,211.939 252.314,216.97 268.689,223.001C286.689,229.564 300.814,235.782 311.033,241.626C321.281,247.469 329.438,255.563 335.562,265.844C341.657,276.157 344.718,288.188 344.718,301.969C344.718,323.125 338.406,340.75 325.812,354.844C313.218,368.969 295.032,377.282 271.25,379.782L271.25,416Z" style="fill:rgb(109,124,160);fill-rule:nonzero;"/>
        </g>
    </g>
    <g transform="matrix(1,0,0,1,186.741,62.8)">
        <g transform="matrix(1.03416,3.69779e-32,6.16298e-32,1.03311,35.1198,42.1231)">
            <ellipse cx="51.417" cy="52.338" rx="24.168" ry="24.192" style="fill:rgb(61,70,91);"/>
        </g>
        <g transform="matrix(1.16762,0,0,1.16762,69.5324,77.5324)">
            <g transform="matrix(0.015913,0,0,0.015913,-3.8913,-3.57788)">
                <path d="M1250.01,287.709L2191.85,1229.55L1250.01,2171.39L308.165,1229.55L1250.01,287.709ZM635.246,1168.03L1065.57,1168.03L1250,963.115L1454.92,1168.03L1885.25,1168.03L1250,481.577L635.246,1168.03Z" style="fill:rgb(109,124,160);fill-rule:nonzero;"/>
            </g>
            <g transform="matrix(0.015913,0,0,0.015913,-3.8913,-3.57788)">
                <path d="M1250,1536.88L307.377,1229.51L1250,287.681L2192.62,1229.51L1250,1536.88ZM635.246,1168.03L1065.57,1168.03L1250,963.115L1454.92,1168.03L1885.25,1168.03L1250,481.577L635.246,1168.03Z" style="fill:rgb(134,151,203);fill-rule:nonzero;"/>
            </g>
            <g transform="matrix(0.015913,0,0,0.015913,-3.8913,-3.57788)">
                <path d="M1250,481.577L1250,287.681L2191.83,1229.51L1250,2171.34L1250,963.115L1454.92,1168.03L1885.25,1168.03L1250,481.577Z" style="fill-opacity:0.4;"/>
            </g>
        </g>
        <g transform="matrix(0.25,0,0,0.25,23.7801,60.7823)">
            <path d="M257.914,41.842C313.106,41.842 357.914,86.65 357.914,141.842C357.914,197.033 313.106,241.842 257.914,241.842C202.723,241.842 157.914,197.033 157.914,141.842C157.914,86.65 202.723,41.842 257.914,41.842ZM257.914,51.842C307.586,51.842 347.914,92.169 347.914,141.842C347.914,191.514 307.586,231.842 257.914,231.842C208.242,231.842 167.914,191.514 167.914,141.842C167.914,92.169 208.242,51.842 257.914,51.842Z" style="fill:rgb(109,124,160);"/>
        </g>
    </g>
    <g transform="matrix(0.25,-1.30461e-17,1.30461e-17,0.25,55,-2.5)">
        <g transform="matrix(4.13664,2.15869e-16,-2.15649e-16,4.13243,167.305,-66.2222)">
            <ellipse cx="51.417" cy="52.338" rx="24.168" ry="24.192" style="fill:rgb(61,70,91);"/>
        </g>
        <g transform="matrix(0.336128,2.77821e-17,8.33464e-17,0.336128,337.105,80)">
            <g>
                <g transform="matrix(1,0,0,1,-122,-41.5467)">
                    <path d="M249.962,41.548L377.924,253.867L249.962,329.504L249.962,329.506L122,253.867L249.961,41.55L249.962,41.547L249.962,41.547L249.962,41.547L249.962,41.548Z" style="fill:rgb(134,151,203);fill-rule:nonzero;"/>
                </g>
                <g transform="matrix(1,0,0,1,-122,-41.5467)">
                    <path d="M249.96,458.448L122,278.132L249.962,353.732L249.962,353.733L378,278.133L249.962,458.453L249.96,458.448Z" style="fill:rgb(134,151,203);fill-rule:nonzero;"/>
                </g>
            </g>
            <g transform="matrix(1,0,0,1,-122,-41.5467)">
                <path d="M122.001,253.867L249.961,329.505L249.961,195.706L122.001,253.867ZM249.962,329.504L377.922,253.867L249.962,195.705L249.962,329.504Z" style="fill:rgb(109,124,160);fill-rule:nonzero;"/>
            </g>
            <g transform="matrix(1,0,0,1,-122,-41.5467)">
                <path d="M250,458.399L250,353.711L378,278.133L250,458.399ZM377.924,253.867L250,329.482L250,41.61L377.924,253.867Z" style="fill-opacity:0.4;fill-rule:nonzero;"/>
            </g>
        </g>
        <g transform="matrix(1,-6.16298e-33,1.66533e-16,1,122.086,8.1582)">
            <path d="M257.914,41.842C313.106,41.842 357.914,86.65 357.914,141.842C357.914,197.033 313.106,241.842 257.914,241.842C202.723,241.842 157.914,197.033 157.914,141.842C157.914,86.65 202.723,41.842 257.914,41.842ZM257.914,51.842C307.586,51.842 347.914,92.169 347.914,141.842C347.914,191.514 307.586,231.842 257.914,231.842C208.242,231.842 167.914,191.514 167.914,141.842C167.914,92.169 208.242,51.842 257.914,51.842Z" style="fill:rgb(109,124,160);"/>
        </g>
    </g>
</svg>
