<?xml version="1.0" encoding="UTF-8" standalone="no"?>
<!DOCTYPE svg PUBLIC "-//W3C//DTD SVG 1.1//EN" "http://www.w3.org/Graphics/SVG/1.1/DTD/svg11.dtd">
<svg width="100%" height="100%" viewBox="0 0 100 100" version="1.1" xmlns="http://www.w3.org/2000/svg" xmlns:xlink="http://www.w3.org/1999/xlink" xml:space="preserve" xmlns:serif="http://www.serif.com/" style="fill-rule:evenodd;clip-rule:evenodd;stroke-linejoin:round;stroke-miterlimit:1.41421;">
    <g transform="matrix(0.689694,0,0,0.689694,-28.739,-37.5256)">
        <path d="M98,175C94.112,175 94.773,173.532 93.432,169.831L82,132.206L170,80" style="fill:rgb(34,34,34);fill-rule:nonzero;"/>
    </g>
    <g transform="matrix(0.689694,0,0,0.689694,-28.739,-37.5256)">
        <path d="M98,175C101,175 102.326,173.628 104,172L120,156.442L100.042,144.407" style="fill:rgb(48,48,48);fill-rule:nonzero;"/>
    </g>
    <g transform="matrix(0.689694,0,0,0.689694,-28.739,-37.5256)">
        <path d="M100.04,144.41L148.4,180.139C153.919,183.184 157.901,181.607 159.276,175.016L178.961,82.253C180.976,74.172 175.881,70.507 170.602,72.904L55.012,117.475C47.122,120.64 47.168,125.042 53.573,127.003L83.236,136.262L151.909,92.937C155.151,90.971 158.127,92.028 155.685,94.195" style="fill:rgb(23,23,23);fill-rule:nonzero;"/>
    </g>
</svg>
